<svg xmlns="http://www.w3.org/2000/svg" viewBox="0 0 205 60"><title>dnr-circle-logo</title><g id="a96d5cd6-f763-4768-8b24-1236d90aae40" data-name="Layer 1"><g id="31d4f9af-1e37-45aa-86c2-99ac2e8d7c76" data-name="Clouds"><path d="M30,59.13A29.15,29.15,0,0,0,58.63,24.61a20.62,20.62,0,0,0-11.76,8.14,20.6,20.6,0,0,0-33.74,0A20.62,20.62,0,0,0,1.37,24.61,29.15,29.15,0,0,0,30,59.13Z" fill="#fff"/></g><g id="147e5d49-e1da-4b63-846a-c4ae8d07eca3" data-name="Waves"><path d="M30,59.13a29.1,29.1,0,0,0,24.26-13,6.6,6.6,0,0,1-5.82-4,6.6,6.6,0,0,1-12.1,0,6.6,6.6,0,0,1-12.1,0,6.6,6.6,0,0,1-12.1,0,6.6,6.6,0,0,1-6,4H5.74A29.1,29.1,0,0,0,30,59.13Z" fill="#5dcae7"/></g><g id="de8d286e-6e7c-4d66-85f2-fa12704fb41e" data-name="Sky"><path d="M13.13,32.74a20.6,20.6,0,0,1,33.74,0,20.62,20.62,0,0,1,11.76-8.14,29.13,29.13,0,0,0-57.25,0A20.62,20.62,0,0,1,13.13,32.74Z" fill="#5ccae8"/></g><g id="9e286a70-1396-40d7-9afe-b26ac002d74d" data-name="Negative Space"><path d="M35.86,38.11,44.24,4.59a29.16,29.16,0,0,0-28.48,0l8.38,33.52Z"/></g><g id="44802023-5ce2-43ba-bdd7-08f46e217c0f" data-name="Trees"><g id="9340737c-bd85-46bc-ad3f-54f05996ca07" data-name="Right Tree"><polygon points="50.42 38.11 43.14 8.98 35.86 38.11 41.72 38.11 41.72 52.67 44.56 52.67 44.56 38.11 50.42 38.11" fill="#009a67"/></g><g id="c1b3f573-9bf9-45a0-852f-474bd8e1e438" data-name="Center Tree"><polygon points="30.05 17.51 24.9 38.11 28.63 38.11 28.63 52.67 31.47 52.67 31.47 38.11 35.2 38.11 30.05 17.51" fill="#009a67"/></g><g id="18f53b40-8e18-4c70-a2cb-9387557abccc" data-name="Left Tree"><polygon points="24.14 38.11 16.86 8.98 9.58 38.11 15.44 38.11 15.44 52.67 18.28 52.67 18.28 38.11 24.14 38.11" fill="#009a67"/></g></g><g id="75ab097b-a1cd-481b-9bd6-28b7a014479e" data-name="Base"><path d="M30,59.13a29,29,0,0,0,20.92-8.87,83,83,0,0,0-41.85,0A29,29,0,0,0,30,59.13Z" fill="#040202"/></g><g id="7e3fc73b-5f91-4a5e-9689-d882d587ba9f" data-name="W"><path d="M30,6.14l5.48,21.92L41.71,3.32q-1.27-.56-2.59-1L35.53,16.68,31.59.92q-.79,0-1.59,0t-1.49,0l-4,16L20.88,2.33q-1.33.44-2.59,1l6.23,24.93Z" fill="#ef3e42"/></g><g id="e920ce5a-2570-43d0-bb80-0e5a17a44dee" data-name="Right Tree"><path d="M44.85,53H41.43V38.4H35.49L43.14,7.78,50.8,38.4H44.85ZM42,52.38h2.26V37.82H50L43.14,10.18,36.23,37.82H42Z" fill="#030000"/></g><g id="5d421570-e772-493f-9160-1c9258e54bb0" data-name="Center Tree"><path d="M31.76,53H28.34V38.4H24.53L30,16.31,35.57,38.4H31.76Zm-2.84-.58h2.26V37.82h3.65L30,18.71l-4.78,19.1h3.65Z" fill="#030000"/></g><g id="a2984f81-a66a-445b-a095-027abc859853" data-name="Left Tree"><path d="M18.57,53H15.15V38.4H9.2L16.86,7.78,24.51,38.4H18.57Zm-2.84-.58H18V37.82h5.78L16.86,10.18,9.95,37.82h5.78Z" fill="#030000"/></g><path d="M11.23,30.84a20.24,20.24,0,0,0-9.93-6l.14-.56a20.82,20.82,0,0,1,10.21,6.12Z" fill="#030000"/><path d="M48.77,30.84l-.43-.39a20.82,20.82,0,0,1,10.21-6.12l.14.56A20.24,20.24,0,0,0,48.77,30.84Z" fill="#030000"/><g id="d0098e32-a4ae-46b8-bde9-5972e53bcffd" data-name="Waves"><path d="M30,59.42A29.38,29.38,0,0,1,5.5,46.28l-.32-.49.58,0h.33A6.3,6.3,0,0,0,11.87,42l.27-.61.27.61a6.31,6.31,0,0,0,3.16,3.22l.17.08v7H18V45.84h.29A6.32,6.32,0,0,0,24,42l.27-.61.27.61a6.35,6.35,0,0,0,4.2,3.59l.22.06v6.68h2.26v-6.6l.24,0A6.29,6.29,0,0,0,36.07,42l.27-.61.27.61a6.3,6.3,0,0,0,5.15,3.76l.26,0v6.54h2.26V45.56l.19-.07A6.33,6.33,0,0,0,48.17,42l.27-.61.27.61a6.33,6.33,0,0,0,5.57,3.79l.52,0-.29.44A29.38,29.38,0,0,1,30,59.42Zm-23.71-13a28.84,28.84,0,0,0,47.44,0,6.93,6.93,0,0,1-5.3-3.55A6.92,6.92,0,0,1,44.85,46v7H41.43v-6.6a6.89,6.89,0,0,1-5.1-3.53,6.87,6.87,0,0,1-4.57,3.44V53H28.34V46.14a7,7,0,0,1-4.1-3.32,6.91,6.91,0,0,1-5.66,3.58V53H15.15V45.72a6.89,6.89,0,0,1-3-2.89A6.88,6.88,0,0,1,6.29,46.42Z" fill="#030000"/></g><polygon points="36.09 38.4 31.47 38.4 31.47 37.82 34.82 37.82 30.05 18.71 25.27 37.82 28.63 37.82 28.63 38.4 23.91 38.4 15.48 4.66 16.04 4.52 24.37 37.82 24.67 37.82 30.05 16.31 35.42 37.82 35.63 37.82 43.96 4.52 44.52 4.66 36.09 38.4" fill="#030000"/><path d="M30,60A30,30,0,1,1,60,30,30,30,0,0,1,30,60ZM30,1.75A28.25,28.25,0,1,0,58.25,30,28.28,28.28,0,0,0,30,1.75Z" fill="#030000"/><path d="M71.36,17.23,70.17,6.06h2.18l.62,7,.62-7h2.08l.6,7,.6-7h2.21L77.86,17.23H75.19l-.56-5.38-.53,5.38Z" fill="#fff"/><path d="M81.92,17.23V6.06h2.16V17.23Z" fill="#fff"/><path d="M87.71,16.58A3.59,3.59,0,0,1,87,14.15V13.06h2.2v1.39q0,.83.53.83a.46.46,0,0,0,.42-.18,1.11,1.11,0,0,0,.12-.59,2.67,2.67,0,0,0-.13-.9,2,2,0,0,0-.33-.6q-.2-.24-.72-.75l-1-1A3.32,3.32,0,0,1,87,8.88a3.2,3.2,0,0,1,.66-2.18A2.41,2.41,0,0,1,89.6,6a2.67,2.67,0,0,1,2.17.8,3.88,3.88,0,0,1,.66,2.5H90.16V8.49A.49.49,0,0,0,90,8.14.45.45,0,0,0,89.68,8a.5.5,0,0,0-.39.14.56.56,0,0,0-.13.39,1.62,1.62,0,0,0,.62,1.13l1.3,1.25a7.45,7.45,0,0,1,.75.84,3.29,3.29,0,0,1,.48.94A4,4,0,0,1,92.5,14a4.31,4.31,0,0,1-.6,2.5,2.28,2.28,0,0,1-2,.85A2.82,2.82,0,0,1,87.71,16.58Z" fill="#fff"/><path d="M96.16,16.57a2.92,2.92,0,0,1-.73-2.11V9.31a4,4,0,0,1,.66-2.51A2.48,2.48,0,0,1,98.17,6a2.87,2.87,0,0,1,2,.68,2.48,2.48,0,0,1,.75,2v1.92H98.69V8.86a1.32,1.32,0,0,0-.12-.66.44.44,0,0,0-.4-.18.42.42,0,0,0-.41.21,1.34,1.34,0,0,0-.11.61v5.6a1.23,1.23,0,0,0,.13.64.43.43,0,0,0,.39.2q.52,0,.52-.84v-2h2.25v2.11a2.49,2.49,0,0,1-2.82,2.81A2.58,2.58,0,0,1,96.16,16.57Z" fill="#fff"/><path d="M104.57,16.51a3.48,3.48,0,0,1-.7-2.32V8.87a3,3,0,0,1,.7-2.18,3.24,3.24,0,0,1,4.11,0,3,3,0,0,1,.7,2.18v5.32a3.47,3.47,0,0,1-.7,2.33,3,3,0,0,1-4.11,0ZM107,15a2,2,0,0,0,.1-.73V8.83a1.52,1.52,0,0,0-.1-.59.39.39,0,0,0-.4-.23q-.56,0-.56.84v5.45a1.76,1.76,0,0,0,.12.73.43.43,0,0,0,.43.25A.39.39,0,0,0,107,15Z" fill="#fff"/><path d="M112.55,17.23V6.06h2.3l1,5.34V6.06H118V17.23h-2.18l-1.12-5.59v5.59Z" fill="#fff"/><path d="M121.75,16.58a3.59,3.59,0,0,1-.68-2.43V13.06h2.2v1.39q0,.83.53.83a.46.46,0,0,0,.42-.18,1.11,1.11,0,0,0,.12-.59,2.67,2.67,0,0,0-.13-.9,2,2,0,0,0-.33-.6q-.2-.24-.72-.75l-1-1a3.32,3.32,0,0,1-1.12-2.42,3.21,3.21,0,0,1,.66-2.18A2.42,2.42,0,0,1,123.65,6a2.67,2.67,0,0,1,2.17.8,3.88,3.88,0,0,1,.66,2.5h-2.28V8.49a.49.49,0,0,0-.12-.35.45.45,0,0,0-.34-.13.5.5,0,0,0-.39.14.56.56,0,0,0-.13.39,1.62,1.62,0,0,0,.62,1.13l1.3,1.25a7.55,7.55,0,0,1,.75.84,3.28,3.28,0,0,1,.48.94,4,4,0,0,1,.18,1.28,4.31,4.31,0,0,1-.6,2.5,2.28,2.28,0,0,1-2,.85A2.82,2.82,0,0,1,121.75,16.58Z" fill="#fff"/><path d="M129.46,17.23V6.06h2.16V17.23Z" fill="#fff"/><path d="M134.79,17.23V6.06h2.3l1,5.34V6.06h2.16V17.23h-2.18L137,11.64v5.59Z" fill="#fff"/><path d="M70.49,24.06h3.08a2.3,2.3,0,0,1,1.79.66,2.89,2.89,0,0,1,.61,2l0,5.23a4.26,4.26,0,0,1-.57,2.48,2.2,2.2,0,0,1-1.94.83h-3Zm2.64,9.19a.53.53,0,0,0,.61-.6V26.9a2,2,0,0,0-.06-.57.38.38,0,0,0-.21-.25A1.33,1.33,0,0,0,73,26h-.25v7.24Z" fill="#fff"/><path d="M79.18,35.23V24.06h4.47v2.16h-2.2v2.17h2.11V30.5H81.45v2.56h2.34v2.17Z" fill="#fff"/><path d="M86.81,24.06h3a2.12,2.12,0,0,1,1.91.86,4.6,4.6,0,0,1,.57,2.53A5,5,0,0,1,91.74,30a1.94,1.94,0,0,1-1.82.85H89v4.42h-2.2Zm2.33,4.73a1,1,0,0,0,.59-.15.71.71,0,0,0,.25-.43,4.15,4.15,0,0,0,.06-.8,2.42,2.42,0,0,0-.16-1,.63.63,0,0,0-.62-.31H89v2.7Z" fill="#fff"/><path d="M94.92,35.23,96,24.06h3.78l1.07,11.17H98.73l-.16-1.81H97.22l-.13,1.81Zm2.47-3.59h1L97.91,26h-.1Z" fill="#fff"/><path d="M103.8,24.06h3.43a1.94,1.94,0,0,1,1.27.37,1.84,1.84,0,0,1,.6,1,7.73,7.73,0,0,1,.16,1.71,3.6,3.6,0,0,1-.25,1.48,1.39,1.39,0,0,1-.86.74,1,1,0,0,1,.73.51,2.23,2.23,0,0,1,.23,1.09l0,4.23h-2.18V30.86q0-.47-.18-.6a1.21,1.21,0,0,0-.66-.13v5.1H103.8Zm2.81,4.13q.47,0,.47-1a4.16,4.16,0,0,0,0-.66.49.49,0,0,0-.14-.31.46.46,0,0,0-.3-.08h-.52V28.2Z" fill="#fff"/><path d="M113.24,35.23v-9h-1.33V24.06h4.89v2.15h-1.33v9Z" fill="#fff"/><path d="M119.7,35.23V24.06h3.41l.94,6.81.94-6.81h3.43V35.23h-2v-8l-1.29,8h-2l-1.37-8v8Z" fill="#fff"/><path d="M131.67,35.23V24.06h4.47v2.16h-2.2v2.17h2.11V30.5h-2.11v2.56h2.34v2.17Z" fill="#fff"/><path d="M139.3,35.23V24.06h2.3l1,5.34V24.06h2.16V35.23H142.6l-1.12-5.59v5.59Z" fill="#fff"/><path d="M149,35.23v-9h-1.33V24.06h4.89v2.15h-1.33v9Z" fill="#fff"/><path d="M161.4,34.51a3.48,3.48,0,0,1-.7-2.32V26.87a3,3,0,0,1,.7-2.18,3.24,3.24,0,0,1,4.11,0,3,3,0,0,1,.7,2.18v5.32a3.48,3.48,0,0,1-.7,2.33,3,3,0,0,1-4.11,0ZM163.86,33a2,2,0,0,0,.1-.73V26.83a1.53,1.53,0,0,0-.1-.59.39.39,0,0,0-.4-.23q-.56,0-.56.84v5.45A1.76,1.76,0,0,0,163,33a.43.43,0,0,0,.43.25A.4.4,0,0,0,163.86,33Z" fill="#fff"/><path d="M169.38,35.23V24.06h4.47v2.17h-2.22V28h2.11v2.15h-2.11v5.07Z" fill="#fff"/><path d="M70.49,53.23V42.06h2.3l1,5.34V42.06H76V53.23H73.8l-1.12-5.59v5.59Z" fill="#fff"/><path d="M78.94,53.23,80,42.06h3.78l1.07,11.17H82.75l-.16-1.81H81.24l-.13,1.81Zm2.47-3.59h1L81.93,44h-.1Z" fill="#fff"/><path d="M88.78,53.23v-9H87.46V42.06h4.89v2.14H91v9Z" fill="#fff"/><path d="M95.78,52.55a3.47,3.47,0,0,1-.67-2.31V42.06h2.17v8.09a2.62,2.62,0,0,0,.1.83.48.48,0,0,0,.88,0,2.61,2.61,0,0,0,.1-.84V42.06h2.17v8.18a3.47,3.47,0,0,1-.67,2.31,3.08,3.08,0,0,1-4.09,0Z" fill="#fff"/><path d="M103.68,42.06h3.43a1.94,1.94,0,0,1,1.27.37,1.84,1.84,0,0,1,.6,1,7.74,7.74,0,0,1,.16,1.71,3.6,3.6,0,0,1-.25,1.48,1.39,1.39,0,0,1-.86.74,1,1,0,0,1,.73.51A2.23,2.23,0,0,1,109,49l0,4.23h-2.18V48.86q0-.47-.18-.6a1.21,1.21,0,0,0-.66-.13v5.1h-2.26Zm2.81,4.13q.47,0,.47-1a4.15,4.15,0,0,0,0-.66.49.49,0,0,0-.14-.31.46.46,0,0,0-.3-.08H106V46.2Z" fill="#fff"/><path d="M111.86,53.23l1.08-11.17h3.78l1.07,11.17h-2.12l-.16-1.81h-1.35L114,53.23Zm2.47-3.59h1L114.85,44h-.1Z" fill="#fff"/><path d="M120.74,53.23V42.06H123v9.27h2.3v1.9Z" fill="#fff"/><path d="M133.49,42.06h3.43a1.94,1.94,0,0,1,1.27.37,1.84,1.84,0,0,1,.61,1,7.77,7.77,0,0,1,.16,1.71,3.59,3.59,0,0,1-.25,1.48,1.39,1.39,0,0,1-.86.74,1,1,0,0,1,.73.51,2.23,2.23,0,0,1,.23,1.09l0,4.23H136.6V48.86q0-.47-.18-.6a1.21,1.21,0,0,0-.66-.13v5.1h-2.26Zm2.81,4.13q.47,0,.47-1a4.1,4.1,0,0,0,0-.66.49.49,0,0,0-.14-.31.46.46,0,0,0-.3-.08h-.52V46.2Z" fill="#fff"/><path d="M142,53.23V42.06h4.47v2.16h-2.2v2.17h2.11V48.5h-2.11v2.56h2.34v2.17Z" fill="#fff"/><path d="M150.05,52.58a3.58,3.58,0,0,1-.68-2.43V49.06h2.2v1.39q0,.83.53.83a.46.46,0,0,0,.42-.18,1.11,1.11,0,0,0,.12-.59,2.68,2.68,0,0,0-.13-.9,2,2,0,0,0-.33-.6q-.2-.24-.72-.75l-1-1a3.32,3.32,0,0,1-1.12-2.42,3.2,3.2,0,0,1,.66-2.18,2.41,2.41,0,0,1,1.92-.75,2.67,2.67,0,0,1,2.17.8,3.89,3.89,0,0,1,.66,2.5h-2.28v-.77a.49.49,0,0,0-.12-.35A.45.45,0,0,0,152,44a.5.5,0,0,0-.39.14.55.55,0,0,0-.13.39,1.62,1.62,0,0,0,.62,1.13l1.3,1.25a7.36,7.36,0,0,1,.75.84,3.31,3.31,0,0,1,.48.94,4,4,0,0,1,.18,1.28,4.3,4.3,0,0,1-.61,2.5,2.27,2.27,0,0,1-2,.85A2.81,2.81,0,0,1,150.05,52.58Z" fill="#fff"/><path d="M158.48,52.51a3.47,3.47,0,0,1-.7-2.32V44.87a3,3,0,0,1,.7-2.18,3.24,3.24,0,0,1,4.11,0,3,3,0,0,1,.7,2.18v5.32a3.47,3.47,0,0,1-.7,2.33,3,3,0,0,1-4.11,0ZM160.93,51a2.05,2.05,0,0,0,.1-.73V44.83a1.52,1.52,0,0,0-.1-.59.39.39,0,0,0-.4-.23q-.56,0-.56.84v5.45a1.76,1.76,0,0,0,.12.73.43.43,0,0,0,.43.25A.4.4,0,0,0,160.93,51Z" fill="#fff"/><path d="M167,52.55a3.47,3.47,0,0,1-.67-2.31V42.06h2.17v8.09a2.6,2.6,0,0,0,.1.83.48.48,0,0,0,.88,0,2.58,2.58,0,0,0,.1-.84V42.06h2.17v8.18a3.47,3.47,0,0,1-.67,2.31,3.08,3.08,0,0,1-4.09,0Z" fill="#fff"/><path d="M174.9,42.06h3.43a1.94,1.94,0,0,1,1.27.37,1.83,1.83,0,0,1,.6,1,7.77,7.77,0,0,1,.16,1.71,3.59,3.59,0,0,1-.25,1.48,1.39,1.39,0,0,1-.86.74,1,1,0,0,1,.73.51,2.22,2.22,0,0,1,.23,1.09l0,4.23H178V48.86q0-.47-.18-.6a1.2,1.2,0,0,0-.66-.13v5.1H174.9Zm2.81,4.13q.47,0,.47-1a4.21,4.21,0,0,0,0-.66.5.5,0,0,0-.14-.31.46.46,0,0,0-.3-.08h-.52V46.2Z" fill="#fff"/><path d="M184,52.57a2.92,2.92,0,0,1-.74-2.11V45.31a4,4,0,0,1,.66-2.51A2.48,2.48,0,0,1,186,42a2.87,2.87,0,0,1,2,.68,2.48,2.48,0,0,1,.75,2v1.92h-2.22V44.86a1.32,1.32,0,0,0-.12-.66A.44.44,0,0,0,186,44a.42.42,0,0,0-.41.21,1.33,1.33,0,0,0-.11.61v5.6a1.23,1.23,0,0,0,.13.64.43.43,0,0,0,.39.2q.52,0,.52-.84v-2h2.25v2.11A2.49,2.49,0,0,1,186,53.33,2.58,2.58,0,0,1,184,52.57Z" fill="#fff"/><path d="M191.81,53.23V42.06h4.47v2.16h-2.2v2.17h2.11V48.5h-2.11v2.56h2.34v2.17Z" fill="#fff"/><path d="M199.89,52.58a3.58,3.58,0,0,1-.68-2.43V49.06h2.2v1.39q0,.83.53.83a.46.46,0,0,0,.42-.18,1.11,1.11,0,0,0,.12-.59,2.68,2.68,0,0,0-.13-.9A2,2,0,0,0,202,49q-.2-.24-.72-.75l-1-1a3.32,3.32,0,0,1-1.12-2.42,3.2,3.2,0,0,1,.66-2.18,2.41,2.41,0,0,1,1.92-.75,2.67,2.67,0,0,1,2.17.8,3.89,3.89,0,0,1,.66,2.5h-2.28v-.77a.49.49,0,0,0-.12-.35.45.45,0,0,0-.35-.13.5.5,0,0,0-.39.14.55.55,0,0,0-.13.39,1.62,1.62,0,0,0,.62,1.13l1.3,1.25a7.36,7.36,0,0,1,.75.84,3.31,3.31,0,0,1,.48.94,4,4,0,0,1,.18,1.28,4.3,4.3,0,0,1-.61,2.5,2.27,2.27,0,0,1-2,.85A2.81,2.81,0,0,1,199.89,52.58Z" fill="#fff"/></g></svg>