<svg xmlns="http://www.w3.org/2000/svg" width="398.3018" height="122" viewBox="0 0 398.3018 122"><title>Asset 7</title><g id="Layer_2" data-name="Layer 2"><g id="NAT_EXPANDED" data-name="NAT EXPANDED"><circle cx="61" cy="61" r="59" fill="#fff"/><path d="M109.4368,94.6722A58.9956,58.9956,0,0,1,12.0584,93.96C20.0992,94.1411,25,85.75,25,85.75a12.641,12.641,0,0,0,11.5,7.5c9.5,0,12.5-7.5,12.5-7.5s4,8.5,12.5,8.5A12.641,12.641,0,0,0,73,86.75s5,7.5,13.5,7.5c4.9382,0,10.5-7.5,10.5-7.5A15.88,15.88,0,0,0,109.4368,94.6722ZM61,2A59.0044,59.0044,0,0,0,2.8612,50.9991C10.6534,53.6673,19.8942,57.5736,23,62.75c5.899,9.8317,46.4847,22.1686,75-1,10.1025-8.2083,17.1194-10.1812,21.1062-10.9334A59.0041,59.0041,0,0,0,61,2Z" fill="#59caea"/><path d="M61,120.5A59.4757,59.4757,0,0,1,11.644,94.2393l-.54-.8013.9663.0215c7.6548.21,12.4507-7.88,12.4986-7.9619l.5146-.8789.3809.9453A12.0246,12.0246,0,0,0,36.5,92.75c9.0317,0,11.9175-6.8931,12.0361-7.1865l.4278-1.06.4882,1.0327c.0391.0825,3.9737,8.2134,12.0479,8.2134a12.0246,12.0246,0,0,0,11.0361-7.186l.3535-.8775.5264.7857c.0484.0727,4.96,7.2778,13.084,7.2778,4.6328,0,10.0444-7.2251,10.0981-7.2979l.483-.6508.3657.7241A15.5107,15.5107,0,0,0,109.48,94.1743l.86.0752-.4936.7085A59.5747,59.5747,0,0,1,61,120.5ZM12.9971,94.4434a58.4936,58.4936,0,0,0,95.5425.6318,16.2981,16.2981,0,0,1-11.6021-7.4321C95.4731,89.4619,90.8408,94.75,86.5,94.75c-7.2241,0-11.9268-5.1455-13.4146-7.042A13.0911,13.0911,0,0,1,61.5,94.75c-7.0728,0-11.168-5.7275-12.4834-7.9346A13.9331,13.9331,0,0,1,36.5,93.75a13.08,13.08,0,0,1-11.5566-6.9893C23.561,88.7773,19.3394,94.085,12.9971,94.4434ZM58.9434,75.4385A72.4737,72.4737,0,0,1,46.5313,74.38c-11.2793-1.9834-21.1324-6.66-23.96-11.3726-2.4038-4.0058-8.9038-7.7793-19.8721-11.5351l-.4023-.1382.0718-.419a59.4906,59.4906,0,0,1,117.23-.1845l.0845.4858-.4844.0913c-2.4336.4595-9.84,1.857-20.8838,10.8306C85.0371,72.9268,70.03,75.4385,58.9434,75.4385ZM3.4272,50.665c10.9571,3.7915,17.502,7.6621,20.0015,11.8277,2.2,3.667,10.4224,8.6426,23.2759,10.9023,8.94,1.5718,31.8061,3.5449,50.98-12.0332C108.272,52.76,115.624,50.9883,118.5273,50.418a58.4912,58.4912,0,0,0-115.1.247Z" fill="#040101"/><path d="M37.84,6.7245,19.5,78.25h12v25h6v-25h20v25h6v-25h20v25h6v-25h12L83.5563,6.4752A59.1065,59.1065,0,0,0,37.84,6.7245Z" fill="#009a67"/><path d="M90,103.75H83v-25H64v25H57v-25H38v25H31v-25H18.8555L37.4165,6.3618l.2271-.0972a59.6068,59.6068,0,0,1,46.104-.2514l.2324.0962L102.1406,78.75H90Zm-6-1h5v-25h11.8594L83.1323,6.8413a58.6088,58.6088,0,0,0-44.87.2471L20.1445,77.75H32v25h5v-25H58v25h5v-25H84Z" fill="#040101"/><path d="M61,15.75l11,43L85.78,7.457a58.5422,58.5422,0,0,0-7.2334-2.8038L72,33.75,64.8881,2.1415C63.6015,2.0577,62.3078,2,61,2s-2.6015.0577-3.8881.1415L50,33.75,42.7825,4.88a58.5941,58.5941,0,0,0-6.9493,2.7517L49,58.75Z" fill="#ef3e42"/><path d="M72,33.75,64.8881,2.1415A58.8152,58.8152,0,0,1,78.5468,4.6532ZM57.1119,2.1415A58.7644,58.7644,0,0,0,42.7825,4.88L50,33.75ZM60,39.75l11.5,38.5h2L90.2651,9.7778Q88.0786,8.5257,85.78,7.457L72,58.75l-11-43-12,43L35.8332,7.6318c-1.4944.7059-2.95,1.4788-4.3721,2.3034L47.5,78.25h2ZM61,120a58.7883,58.7883,0,0,0,41.01-16.6041C88.8064,99.2266,70.0329,97.3831,60.5,97.25c-12.49-.1744-30.0248,1.9028-40.7057,5.959A58.7942,58.7942,0,0,0,61,120Z" fill="#040101"/><path d="M141.7051,41.625,137.77,19.6162h4.041l1.9532,14.97,3.2988-14.97h3.1035l3.3,14.97,1.9678-14.97h4.041l-3.95,22.0088h-3.7392l-3.0723-14.7886L145.459,41.625Zm23.5976-22.0088H161.292V41.625h4.0107Zm11.8057,17.8159a3.1879,3.1879,0,0,1-2.0273.5752,3.411,3.411,0,0,1-2.1426-.6811,3.9627,3.9627,0,0,1-1.3086-1.9981l-3.6787,1.62a6.3952,6.3952,0,0,0,1.2939,2.7094A5.6879,5.6879,0,0,0,171.5693,41.3q1.4063.5523,1.4073.5523h1.8769a8.907,8.907,0,0,0,3.7236-.7115,5.2073,5.2073,0,0,0,2.377-2.0737,6.2085,6.2085,0,0,0,.8164-3.2544V34.874a5.6921,5.6921,0,0,0-.7334-3.08,4.9734,4.9734,0,0,0-1.8164-1.7485,15.3111,15.3111,0,0,0-2.7324-1.105.5888.5888,0,0,1-.1289-.0381.6856.6856,0,0,0-.1436-.0376c-.06-.02-.1211-.0429-.1816-.0678a.8.8,0,0,0-.1973-.0532,19.329,19.329,0,0,1-1.8457-.6734,3.2512,3.2512,0,0,1-1.1211-.8027,1.9091,1.9091,0,0,1-.4531-1.3242v-.7417a1.7775,1.7775,0,0,1,.6807-1.4761,3.0922,3.0922,0,0,1,1.9521-.5371,2.612,2.612,0,0,1,1.7559.6509,4.3433,4.3433,0,0,1,1.1963,1.892l3.497-1.6347a7.2167,7.2167,0,0,0-1.2568-2.6113,5.1452,5.1452,0,0,0-2.0811-1.5743,7.438,7.438,0,0,0-2.8838-.5219,8.608,8.608,0,0,0-3.6787.7114,5.109,5.109,0,0,0-2.3076,2.0737,6.3444,6.3444,0,0,0-.7949,3.2544v.6055a5.7251,5.7251,0,0,0,.8018,3.2168,5.0958,5.0958,0,0,0,1.9453,1.7783,18.7148,18.7148,0,0,0,2.9443,1.12l.1963.0454a.11.11,0,0,0,.0537.023.2444.2444,0,0,1,.083.0376q1.1045.3331,1.7861.6128a2.908,2.908,0,0,1,1.1045.7646,1.7923,1.7923,0,0,1,.4239,1.2261v.9687A1.93,1.93,0,0,1,177.1084,37.4321Zm10.1113,3.61,1.4844.81h2.0879a6.762,6.762,0,0,0,3.459-.8174,5.4457,5.4457,0,0,0,2.18-2.4751,11.72,11.72,0,0,0,.9463-4.2H193.32a6.3652,6.3652,0,0,1-.3935,1.9756,2.5607,2.5607,0,0,1-.8477,1.1577,2.1561,2.1561,0,0,1-1.2871.3784,2.6526,2.6526,0,0,1-1.377-.3408,2.2315,2.2315,0,0,1-.8857-.9912,3.67,3.67,0,0,1-.31-1.5894V26.3066a3.7367,3.7367,0,0,1,.31-1.5893,2.2194,2.2194,0,0,1,.8857-1.0064,2.6526,2.6526,0,0,1,1.377-.3408,2.1666,2.1666,0,0,1,1.2793.3784,2.4939,2.4939,0,0,1,.8476,1.1578,6.797,6.797,0,0,1,.4014,1.9755h4.0567a11.5124,11.5124,0,0,0-.9307-4.2,5.4379,5.4379,0,0,0-2.1875-2.4751,6.8045,6.8045,0,0,0-3.4668-.8173,7.356,7.356,0,0,0-3.5723.81,5.4043,5.4043,0,0,0-2.2695,2.3613,8.1929,8.1929,0,0,0-.7871,3.7461V34.95a8.1452,8.1452,0,0,0,.7871,3.7388A5.4139,5.4139,0,0,0,187.22,41.042Zm15.6221.0078a5.6049,5.6049,0,0,1-2.376-2.3086,7.1507,7.1507,0,0,1-.833-3.519V26.019a7.1422,7.1422,0,0,1,.833-3.5268,5.6212,5.6212,0,0,1,2.376-2.3008,8.5583,8.5583,0,0,1,7.2353,0,5.6293,5.6293,0,0,1,2.377,2.3008,7.1516,7.1516,0,0,1,.832,3.5268v9.2032a7.16,7.16,0,0,1-.832,3.519,5.6129,5.6129,0,0,1-2.377,2.3086,8.5573,8.5573,0,0,1-7.2353,0Zm.833-6.0395a3.2929,3.2929,0,0,0,.34,1.5439,2.3733,2.3733,0,0,0,.9688.999,2.9957,2.9957,0,0,0,1.4766.3482,3.0348,3.0348,0,0,0,1.4824-.3482,2.3111,2.3111,0,0,0,.9687-.999,3.34,3.34,0,0,0,.334-1.5439V26.2158a3.3078,3.3078,0,0,0-.334-1.5288,2.3578,2.3578,0,0,0-.9687-1.0063,2.9843,2.9843,0,0,0-1.4824-.356,2.946,2.946,0,0,0-1.4766.356,2.4225,2.4225,0,0,0-.9688,1.0063,3.2617,3.2617,0,0,0-.34,1.5288Zm16.544-7.7793L226.4854,41.61h4.0419V19.6162H226.834V34.4488l-6.2969-14.8326H216.541V41.61h3.6778Zm22.4169,10.2011a3.1875,3.1875,0,0,1-2.0273.5752,3.411,3.411,0,0,1-2.1426-.6811,3.964,3.964,0,0,1-1.3086-1.9981l-3.6787,1.62a6.3953,6.3953,0,0,0,1.294,2.7094A5.6866,5.6866,0,0,0,237.0967,41.3q1.4063.5523,1.4072.5523h1.877a8.9076,8.9076,0,0,0,3.7236-.7115,5.207,5.207,0,0,0,2.3769-2.0737,6.2076,6.2076,0,0,0,.8165-3.2544V34.874a5.693,5.693,0,0,0-.7334-3.08,4.9736,4.9736,0,0,0-1.8165-1.7485,15.308,15.308,0,0,0-2.7324-1.105.5905.5905,0,0,1-.1289-.0381.6845.6845,0,0,0-.1435-.0376c-.0606-.02-.1211-.0429-.1817-.0678a.7992.7992,0,0,0-.1972-.0532,19.3085,19.3085,0,0,1-1.8457-.6734,3.2493,3.2493,0,0,1-1.1211-.8027,1.9086,1.9086,0,0,1-.4532-1.3242v-.7417a1.7775,1.7775,0,0,1,.6807-1.4761,3.0924,3.0924,0,0,1,1.9521-.5371,2.6118,2.6118,0,0,1,1.7559.6509,4.3424,4.3424,0,0,1,1.1963,1.892l3.4971-1.6347a7.2168,7.2168,0,0,0-1.2569-2.6113,5.1455,5.1455,0,0,0-2.081-1.5743,7.4383,7.4383,0,0,0-2.8838-.5219,8.6073,8.6073,0,0,0-3.6787.7114,5.109,5.109,0,0,0-2.3076,2.0737,6.3444,6.3444,0,0,0-.795,3.2544v.6055a5.7251,5.7251,0,0,0,.8018,3.2168,5.0973,5.0973,0,0,0,1.9453,1.7783,18.7187,18.7187,0,0,0,2.9443,1.12l.1963.0454a.111.111,0,0,0,.0537.023.244.244,0,0,1,.0831.0376q1.1045.3331,1.7861.6128a2.908,2.908,0,0,1,1.1045.7646,1.7922,1.7922,0,0,1,.4238,1.2261v.9687A1.93,1.93,0,0,1,242.6357,37.4321Zm7.2969,4.1929h4.0108V19.6162h-4.0108Zm11.17-14.394L267.3691,41.61h4.042V19.6162h-3.6933V34.4488l-6.2969-14.8326h-3.9961V41.61h3.6777ZM152.0879,52.5605a7.02,7.02,0,0,1,.8027,3.4585v9.2032a7.0545,7.0545,0,0,1-.7793,3.3979,5.2578,5.2578,0,0,1-2.3242,2.2256,8.26,8.26,0,0,1-3.7539.7793h-6.4473V49.6162h6.4629a8.3834,8.3834,0,0,1,3.7012.749A5.22,5.22,0,0,1,152.0879,52.5605Zm-3.2383,3.625a2.6819,2.6819,0,0,0-.7646-2.0507,3.05,3.05,0,0,0-2.1729-.7193h-2.3906v14.41h2.3906a3.05,3.05,0,0,0,2.1729-.7193,2.6812,2.6812,0,0,0,.7646-2.0507Zm7.2959-6.5693V71.625h12.2451v-3.83h-8.31v-5.207H167.18V58.7891h-7.0986V53.4458h8.31v-3.83H156.1455Zm25.6113.7041a4.9437,4.9437,0,0,1,2.0967,2.02,6.2745,6.2745,0,0,1,.7344,3.103v1.877a6.1551,6.1551,0,0,1-.7344,3.0728,4.9132,4.9132,0,0,1-2.1045,1.998,7.0079,7.0079,0,0,1-3.2158.6963h-3.33V71.625h-3.9355V49.6162h7.2656A6.933,6.933,0,0,1,181.7568,50.32Zm-1.2109,5.4111a2.929,2.929,0,0,0-.2422-1.226,1.8027,1.8027,0,0,0-.6963-.81,1.98,1.98,0,0,0-1.06-.28h-3.3448v5.8731h3.3448a1.9879,1.9879,0,0,0,1.0439-.2725,1.8072,1.8072,0,0,0,.7041-.7944,2.7161,2.7161,0,0,0,.25-1.1885ZM194.2,49.6162l6.8262,22.0088H196.94l-.9558-3.4663h-6.2018l-.9557,3.4663h-4.0869l6.8261-22.0088Zm.7485,14.7886-2.0659-7.4927-2.0658,7.4927ZM210.73,49.6011a6.63,6.63,0,0,1,3.125.6963,4.8241,4.8241,0,0,1,2.0361,2.0053,6.3546,6.3546,0,0,1,.7119,3.0806V56.67a6.51,6.51,0,0,1-.7119,3.126,4.8918,4.8918,0,0,1-2.0361,2.0356,5.477,5.477,0,0,1-.7411.326l4.2606,9.4675h-4.5107L209.02,62.543H207.126v9.082h-3.9043V49.6011H210.73Zm.9453,4.0493a1.8846,1.8846,0,0,0-.9912-.25H207.126v5.3433h3.5576a1.9038,1.9038,0,0,0,.9834-.25,1.6108,1.6108,0,0,0,.6435-.7041,2.4054,2.4054,0,0,0,.22-1.0595V55.4893a2.6311,2.6311,0,0,0-.22-1.1123A1.5988,1.5988,0,0,0,211.6748,53.65Zm15.13,17.9746V53.4155h4.8125V49.6162H218.0547v3.7993h4.7988v18.21Zm15.3779-8.6279-3.9355-13.3809h-4.51V71.625h3.5869V57.3924l3.4815,11.0539h2.7548l3.5118-11.44V71.625H250.63V49.6162h-4.48Zm24.4766,8.6279v-3.83h-8.31v-5.207h7.0986V58.7891H258.35V53.4458h8.31v-3.83H254.4141V71.625h12.2451Zm12.8213-.0151h4.042V49.6162h-3.6934V64.4488l-6.2969-14.8326h-3.9961V71.61h3.6778V57.231Zm11.5644.0151h3.9512V53.4155h4.8125V49.6162H286.2461v3.7993h4.7988ZM322.03,65.2222a7.16,7.16,0,0,1-.8321,3.519,5.6121,5.6121,0,0,1-2.3769,2.3086,8.5575,8.5575,0,0,1-7.2354,0,5.6041,5.6041,0,0,1-2.3759-2.3086,7.15,7.15,0,0,1-.833-3.519V56.019a7.1411,7.1411,0,0,1,.833-3.5268,5.62,5.62,0,0,1,2.3759-2.3008,8.5585,8.5585,0,0,1,7.2354,0,5.6285,5.6285,0,0,1,2.3769,2.3008,7.1516,7.1516,0,0,1,.8321,3.5268Zm-4.041-9.0064a3.3091,3.3091,0,0,0-.334-1.5288,2.358,2.358,0,0,0-.9688-1.0063,2.984,2.984,0,0,0-1.4824-.356,2.9465,2.9465,0,0,0-1.4766.356,2.4216,2.4216,0,0,0-.9687,1.0063,3.26,3.26,0,0,0-.34,1.5288V65.01a3.2917,3.2917,0,0,0,.34,1.5439,2.3725,2.3725,0,0,0,.9687.999,2.9962,2.9962,0,0,0,1.4766.3482,3.0345,3.0345,0,0,0,1.4824-.3482,2.3113,2.3113,0,0,0,.9688-.999,3.3408,3.3408,0,0,0,.334-1.5439Zm8.8847-6.6h-1.5888V71.625h3.9355v-8.84h6.9629V59.001h-6.9629V53.4155h8.1738V49.6162h-10.52ZM149.8789,94.4488,143.582,79.6162h-3.9961V101.61h3.6778V87.231L149.53,101.61h4.042V79.6162h-3.6934Zm15.0459-14.8326,6.8262,22.0088h-4.0869l-.9558-3.4663h-6.2018l-.9557,3.4663h-4.0869L162.29,79.6162Zm.7485,14.7886-2.0659-7.4927-2.0658,7.4927Zm5.396-10.9893h4.7989v18.21h3.9511v-18.21h4.8125V79.6162H171.0693Zm24.1436,11.67a2.927,2.927,0,0,1-.7109,2.0967,2.6263,2.6263,0,0,1-1.9981.749,2.58,2.58,0,0,1-1.9756-.749,2.9416,2.9416,0,0,1-.7041-2.0967v-15.47H185.873V94.98a8.1357,8.1357,0,0,0,.78,3.7085,5.3584,5.3584,0,0,0,2.27,2.3535,8.3309,8.3309,0,0,0,7.167,0,5.3977,5.3977,0,0,0,2.2862-2.3535,8.0846,8.0846,0,0,0,.7871-3.7085V79.6162h-3.9512Zm17.0519-2.9284,4.2606,9.4675h-4.5108l-3.8435-9.082h-1.8938v9.082H202.373V79.6011h7.5079a6.6307,6.6307,0,0,1,3.125.6963,4.8241,4.8241,0,0,1,2.0361,2.0053,6.3546,6.3546,0,0,1,.7119,3.0806V86.67a6.51,6.51,0,0,1-.7119,3.126,4.8918,4.8918,0,0,1-2.0361,2.0356A5.477,5.477,0,0,1,212.2648,92.1575Zm-5.9875-3.4138h3.5577a1.904,1.904,0,0,0,.9834-.25,1.6114,1.6114,0,0,0,.6435-.7041,2.4054,2.4054,0,0,0,.22-1.0595V85.4893a2.6311,2.6311,0,0,0-.22-1.1123,1.5994,1.5994,0,0,0-.6357-.7266,1.8848,1.8848,0,0,0-.9912-.25h-3.5577Zm20.3145-9.1275,6.8262,22.0088h-4.0869l-.9558-3.4663h-6.2018l-.9557,3.4663h-4.0869l6.8261-22.0088Zm.7485,14.7886-2.0659-7.4927-2.0658,7.4927Zm12.2085-14.7886h-3.9355V101.625H247.707V97.8257h-8.1582Zm27.8283,12.5413,4.2606,9.4675H267.127l-3.8436-9.082H261.39v9.082h-3.9042V79.6011h7.5078a6.63,6.63,0,0,1,3.125.6963,4.8241,4.8241,0,0,1,2.0361,2.0053,6.3546,6.3546,0,0,1,.7119,3.0806V86.67a6.51,6.51,0,0,1-.7119,3.126,4.8918,4.8918,0,0,1-2.0361,2.0356A5.477,5.477,0,0,1,267.3771,92.1575ZM261.39,88.7437h3.5577a1.904,1.904,0,0,0,.9834-.25,1.6114,1.6114,0,0,0,.6435-.7041,2.4054,2.4054,0,0,0,.22-1.0595V85.4893a2.6311,2.6311,0,0,0-.22-1.1123,1.5994,1.5994,0,0,0-.6357-.7266,1.8848,1.8848,0,0,0-.9912-.25H261.39Zm14.7745-9.1275H274.59V101.625H286.835v-3.83h-8.31v-5.207h7.0986V88.7891h-7.0986V83.4458h8.31v-3.83H276.1641Zm23.9843,10.4292a15.308,15.308,0,0,0-2.7324-1.105.5905.5905,0,0,1-.1289-.0381.6845.6845,0,0,0-.1435-.0376c-.0606-.02-.1211-.0429-.1817-.0678a.7988.7988,0,0,0-.1973-.0532,19.329,19.329,0,0,1-1.8457-.6734,3.25,3.25,0,0,1-1.121-.8027,1.9086,1.9086,0,0,1-.4532-1.3242v-.7417a1.7775,1.7775,0,0,1,.6807-1.4761,3.0924,3.0924,0,0,1,1.9521-.5371,2.6118,2.6118,0,0,1,1.7559.6509,4.3424,4.3424,0,0,1,1.1963,1.892l3.4971-1.6347a7.2168,7.2168,0,0,0-1.2569-2.6113,5.1455,5.1455,0,0,0-2.081-1.5743,7.4383,7.4383,0,0,0-2.8838-.5219,8.6073,8.6073,0,0,0-3.6787.7114,5.1085,5.1085,0,0,0-2.3076,2.0737,6.3444,6.3444,0,0,0-.795,3.2544v.6055a5.7251,5.7251,0,0,0,.8018,3.2168,5.0965,5.0965,0,0,0,1.9453,1.7783,18.7187,18.7187,0,0,0,2.9443,1.12l.1963.0454a.1105.1105,0,0,0,.0537.023.2436.2436,0,0,1,.083.0376q1.1046.3332,1.7862.6128a2.9088,2.9088,0,0,1,1.1045.7646,1.7922,1.7922,0,0,1,.4238,1.2261v.9687a1.93,1.93,0,0,1-.7266,1.6045,3.1875,3.1875,0,0,1-2.0273.5752,3.411,3.411,0,0,1-2.1426-.6811,3.9634,3.9634,0,0,1-1.3086-1.9981l-3.6787,1.62a6.3953,6.3953,0,0,0,1.294,2.7094,5.6866,5.6866,0,0,0,2.3242,1.6426q1.4063.5523,1.4072.5523h1.877a8.9076,8.9076,0,0,0,3.7236-.7115,5.2075,5.2075,0,0,0,2.3769-2.0737,6.2076,6.2076,0,0,0,.8164-3.2544V94.874a5.6921,5.6921,0,0,0-.7334-3.08A4.9734,4.9734,0,0,0,300.1484,90.0454Zm17.7784-7.5532a7.1527,7.1527,0,0,1,.832,3.5268v9.2032a7.1613,7.1613,0,0,1-.832,3.519,5.6129,5.6129,0,0,1-2.377,2.3086,8.5573,8.5573,0,0,1-7.2353,0,5.6049,5.6049,0,0,1-2.376-2.3086,7.15,7.15,0,0,1-.833-3.519V86.019a7.1411,7.1411,0,0,1,.833-3.5268,5.6212,5.6212,0,0,1,2.376-2.3008,8.5583,8.5583,0,0,1,7.2353,0A5.6293,5.6293,0,0,1,317.9268,82.4922Zm-3.209,3.7236a3.3091,3.3091,0,0,0-.334-1.5288,2.358,2.358,0,0,0-.9688-1.0063,2.984,2.984,0,0,0-1.4824-.356,2.9459,2.9459,0,0,0-1.4765.356,2.4213,2.4213,0,0,0-.9688,1.0063,3.26,3.26,0,0,0-.34,1.5288V95.01a3.2917,3.2917,0,0,0,.34,1.5439,2.3721,2.3721,0,0,0,.9688.999,2.9956,2.9956,0,0,0,1.4765.3482,3.0345,3.0345,0,0,0,1.4824-.3482,2.3113,2.3113,0,0,0,.9688-.999,3.3408,3.3408,0,0,0,.334-1.5439Zm16.06,8.87a2.927,2.927,0,0,1-.7109,2.0967,2.6259,2.6259,0,0,1-1.998.749,2.58,2.58,0,0,1-1.9756-.749,2.9411,2.9411,0,0,1-.7041-2.0967v-15.47h-3.9512V94.98a8.1357,8.1357,0,0,0,.78,3.7085,5.3573,5.3573,0,0,0,2.27,2.3535,8.3309,8.3309,0,0,0,7.167,0,5.3975,5.3975,0,0,0,2.2861-2.3535,8.0846,8.0846,0,0,0,.7871-3.7085V79.6162h-3.9512Zm17.0519-2.9284,4.2606,9.4675h-4.5107l-3.8436-9.082h-1.8937v9.082h-3.9043V79.6011h7.5078a6.63,6.63,0,0,1,3.125.6963,4.8241,4.8241,0,0,1,2.0361,2.0053,6.3535,6.3535,0,0,1,.712,3.0806V86.67a6.5087,6.5087,0,0,1-.712,3.126,4.8918,4.8918,0,0,1-2.0361,2.0356A5.477,5.477,0,0,1,347.8292,92.1575Zm-5.9874-3.4138h3.5576a1.9035,1.9035,0,0,0,.9834-.25,1.6116,1.6116,0,0,0,.6436-.7041,2.4054,2.4054,0,0,0,.22-1.0595V85.4893a2.6311,2.6311,0,0,0-.22-1.1123,1.599,1.599,0,0,0-.6358-.7266,1.8846,1.8846,0,0,0-.9912-.25h-3.5576Zm16.7187-4.0264a2.22,2.22,0,0,1,.8858-1.0064,2.6525,2.6525,0,0,1,1.3769-.3408,2.1664,2.1664,0,0,1,1.2793.3784,2.4941,2.4941,0,0,1,.8477,1.1578,6.8036,6.8036,0,0,1,.4014,1.9755h4.0566a11.51,11.51,0,0,0-.9307-4.2,5.4379,5.4379,0,0,0-2.1875-2.4751,6.804,6.804,0,0,0-3.4668-.8173,7.3556,7.3556,0,0,0-3.5722.81,5.4051,5.4051,0,0,0-2.27,2.3613,8.1942,8.1942,0,0,0-.7871,3.7461V94.95a8.1465,8.1465,0,0,0,.7871,3.7388,5.4147,5.4147,0,0,0,2.27,2.3535q1.4838.81,1.4844.81h2.0878a6.7617,6.7617,0,0,0,3.459-.8174,5.4451,5.4451,0,0,0,2.18-2.4751,11.7176,11.7176,0,0,0,.9463-4.2h-4.0566a6.365,6.365,0,0,1-.3936,1.9756,2.56,2.56,0,0,1-.8476,1.1577,2.1566,2.1566,0,0,1-1.2872.3784,2.6525,2.6525,0,0,1-1.3769-.3408,2.2317,2.2317,0,0,1-.8858-.9912,3.67,3.67,0,0,1-.31-1.5894V86.3066A3.7367,3.7367,0,0,1,358.5605,84.7173Zm13.2081-5.1011h-1.5743V101.625H382.44v-3.83h-8.31v-5.207h7.0986V88.7891H374.13V83.4458h8.31v-3.83H371.7686Zm25.8,12.1777a4.9741,4.9741,0,0,0-1.8164-1.7485A15.3124,15.3124,0,0,0,393.02,88.94a.5922.5922,0,0,1-.1289-.0381.6845.6845,0,0,0-.1435-.0376c-.0606-.02-.1211-.0429-.1817-.0678a.798.798,0,0,0-.1972-.0532,19.3187,19.3187,0,0,1-1.8457-.6734,3.2493,3.2493,0,0,1-1.1211-.8027,1.9086,1.9086,0,0,1-.4532-1.3242v-.7417a1.7775,1.7775,0,0,1,.6807-1.4761,3.0925,3.0925,0,0,1,1.9522-.5371,2.6118,2.6118,0,0,1,1.7558.6509,4.3424,4.3424,0,0,1,1.1963,1.892l3.4971-1.6347a7.2168,7.2168,0,0,0-1.2569-2.6113,5.1449,5.1449,0,0,0-2.081-1.5743,7.4383,7.4383,0,0,0-2.8838-.5219,8.6073,8.6073,0,0,0-3.6787.7114,5.109,5.109,0,0,0-2.3076,2.0737,6.3444,6.3444,0,0,0-.795,3.2544v.6055a5.7251,5.7251,0,0,0,.8018,3.2168,5.0973,5.0973,0,0,0,1.9453,1.7783,18.7164,18.7164,0,0,0,2.9444,1.12l.1962.0454a.111.111,0,0,0,.0538.023.2444.2444,0,0,1,.083.0376q1.1044.3332,1.7861.6128a2.908,2.908,0,0,1,1.1045.7646,1.7922,1.7922,0,0,1,.4238,1.2261v.9687a1.93,1.93,0,0,1-.7266,1.6045,3.1875,3.1875,0,0,1-2.0273.5752,3.411,3.411,0,0,1-2.1426-.6811,3.964,3.964,0,0,1-1.3086-1.9981l-3.6787,1.62a6.3953,6.3953,0,0,0,1.294,2.7094,5.6866,5.6866,0,0,0,2.3242,1.6426q1.4063.5523,1.4072.5523h1.877a8.9076,8.9076,0,0,0,3.7236-.7115,5.2078,5.2078,0,0,0,2.377-2.0737,6.2085,6.2085,0,0,0,.8164-3.2544V94.874A5.693,5.693,0,0,0,397.5684,91.7939Z" fill="#fff"/><path d="M61,122a61,61,0,1,1,61-61A61.0688,61.0688,0,0,1,61,122ZM61,4a57,57,0,1,0,57,57A57.0648,57.0648,0,0,0,61,4Z" fill="#040101"/></g></g></svg>