<svg xmlns="http://www.w3.org/2000/svg" width="379.7676" height="73.5" viewBox="0 0 379.7676 73.5"><title>wisc_health</title><g id="Layer_2" data-name="Layer 2"><g id="DEPT_HEALTH_EXPANDED" data-name="DEPT HEALTH EXPANDED"><circle cx="36.75" cy="36.75" r="36.75" fill="#003c78"/><path d="M62.1537,63.2914c-.7038.6739-1.43,1.3242-2.1853,1.9408C56.6811,61.9684,51.0268,56.0419,44,52.5c-3.1843-1.6051-4.2007-4.1256-7-3-6.3521,2.5542-8.7612,14.7552-9.9893,22.6854q-.8628-.2366-1.7081-.5132C24.0054,65.5815,24,59.2906,24,51.5,24,33.7378,12.9374,17.7955,9.8061,11.7684q.92-.9914,1.91-1.9127C16.2566,13.4713,27.1591,21.3424,39,24.5c15,4,26,3,25,6-.6324,1.8973-11.7263-.5192-16,5-2.7255,3.52-2.5412,4.0336-1,8C50.3408,52.0978,59.351,58.9478,62.1537,63.2914Z" fill="#6ac7ce"/><path d="M60.4359,8.66C53.6185,15.0525,43.312,21.5522,34.5,24,15.014,29.4127,8,28.5,8,30.5c0,3,19.8675-.56,20.5,4.5,1,8-12.3312,22.7432-18.1835,27.2669.5658.5861,1.1444,1.16,1.7478,1.707C19.7,59.9456,31.7662,49.4578,36,49.5c3.96.0395,6.6464,14.7554,8.3629,23.2057q1.5909-.3352,3.129-.805A210.61,210.61,0,0,0,49.5,43c0-9.0944,6.94-22.9756,13.554-31.9029Q61.8047,9.8164,60.4359,8.66Z" fill="#bef1f4"/><circle cx="36" cy="15.5" r="5.5" fill="#bef1f4"/><path d="M107.1694,18.8735a1.8371,1.8371,0,0,0-1.0576.5171,16.8578,16.8578,0,0,0-1.2925,2.6084c-1.1513,2.75-3.7129,8.6006-4.8642,11.6553a1.3924,1.3924,0,0,1-.7754.188,1.0681,1.0681,0,0,1-.6343-.188c-.2588-.564-.6108-1.41-.8931-2.0679l-.9868-2.2324c-.3291-.7519-.6347-1.457-.8462-1.8091-.2114.3994-.4931.9634-.7988,1.6211L93.94,31.4453c-.3526.752-.6109,1.4336-.9869,2.209a1.3216,1.3216,0,0,1-.7988.188,1.18,1.18,0,0,1-.6348-.188c-.3759-.9868-1.3159-3.1016-2.1147-4.8643l-3.83-8.2949c-.6347-1.3862-.7754-1.5039-1.5508-1.6684l-.5879-.1177c-.1879-.2349-.164-.7046.0943-.8223.87.0469,1.8564.07,3.0547.07,1.0342,0,1.9507-.0234,2.8432-.07.188.0943.2823.6817.0469.8223l-.4228.0708c-.4229.07-.5874.188-.5874.3525a28.3955,28.3955,0,0,0,1.2221,2.9136l2.3262,5.1934c.6582,1.457,1.01,2.1147,1.2925,2.6787.2817-.47.8222-1.5742,1.1982-2.42l.3057-.6812a2.4762,2.4762,0,0,0,.2348-.8227,4.3069,4.3069,0,0,0-.2583-.8692L92.53,20.166c-.54-1.1748-.7051-1.3393-1.5982-1.4331l-.2348-.0239c-.2349-.1875-.188-.728.07-.8223,1.0107.0469,1.9272.07,2.9609.07,1.1988,0,2.0913-.0234,2.7027-.07.2817.07.2583.7051.0937.8223l-.3994.0942c-.2822.07-.6348.1646-.6348.3291a1.95,1.95,0,0,0,.2119.7046l.7046,1.6216c.2115.4936.5171,1.1279.7286,1.5508l.7285-1.5977.2114-.47a10.56,10.56,0,0,0,.6816-1.7388c0-.1645-.0942-.2348-.47-.3291l-.8457-.1645a.6708.6708,0,0,1,.07-.8223c.6817.0469,1.5274.07,2.3033.07.916,0,1.7856-.0234,2.3964-.07a.67.67,0,0,1,.0235.8462l-.6577.1406c-.7989.1646-.9634.1646-1.7862,1.5747-.5639.9634-1.1513,2.1382-1.4565,2.7491a7.4093,7.4093,0,0,0-.5171,1.2221,1.6669,1.6669,0,0,0,.188.5874L99.1094,27.38c.6108,1.2925.94,2.0444,1.081,2.373,1.128-2.7256,2.42-5.71,3.5479-8.5766a11.7083,11.7083,0,0,0,.6113-1.9034c0-.2353-.376-.3291-.6816-.4233l-.5171-.1411a.6336.6336,0,0,1,.0708-.8223c.7519.0469,1.7153.07,2.42.07.8228,0,1.5039-.0234,2.1621-.07.2114.1177.2349.6348.07.8223Z" fill="#003c78"/><path d="M112.7158,30.0356c0,2.2085.1411,2.3731,1.2222,2.5611l.6577.1177a.67.67,0,0,1-.0234.8222c-1.2691-.0469-2.42-.07-3.5249-.07-1.128,0-2.3028.0234-3.5718.07a.67.67,0,0,1,0-.8222l.6582-.1177c1.081-.188,1.2217-.3526,1.2217-2.5611V21.3882c0-2.209-.1407-2.3736-1.2217-2.5615l-.6582-.1177a.67.67,0,0,1,0-.8223c1.269.0469,2.4438.07,3.5718.07,1.1045,0,2.2793-.0234,3.5483-.07a.67.67,0,0,1,0,.8223l-.6577.1177c-1.0811.1879-1.2222.3525-1.2222,2.5615Z" fill="#003c78"/><path d="M120.6821,33.8423a8.1555,8.1555,0,0,1-3.9946-.8931,7.6079,7.6079,0,0,1-.752-3.8066.58.58,0,0,1,.8931-.07c.47,1.5273,2.0444,3.6889,4.0415,3.6889a2.3374,2.3374,0,0,0,2.5381-2.373c0-1.9038-1.7861-3.0318-3.1958-3.7363-1.6919-.8462-3.5483-2.2559-3.5483-4.5826-.0235-2.6552,2.0444-4.4882,5.4516-4.4882a9.5415,9.5415,0,0,1,2.6787.3759,5.5948,5.5948,0,0,0,.7989.1885,11.441,11.441,0,0,1,.4233,3.36c-.1177.2822-.7051.3056-.9165.0708-.4-1.1988-1.41-2.9141-3.1021-2.9141a2.1839,2.1839,0,0,0-2.3969,2.1856,3.4413,3.4413,0,0,0,2.1386,2.6787l1.5508.8222c1.4571.7759,3.3135,2.1387,3.3135,4.7237C126.604,31.9624,124.2305,33.8423,120.6821,33.8423Z" fill="#003c78"/><path d="M142.4189,18.1924a31.2818,31.2818,0,0,0,.2823,3.6655.6451.6451,0,0,1-.8931.1646,4.2669,4.2669,0,0,0-4.4175-3.36c-2.6084,0-5.4048,2.2324-5.4048,6.9087s2.7022,7.19,5.522,7.19c2.8438,0,4.1592-2.0444,4.794-3.6421a.6716.6716,0,0,1,.893.1646,10.4176,10.4176,0,0,1-.893,3.689,17.4827,17.4827,0,0,1-4.77.87,10.7386,10.7386,0,0,1-6.3209-1.7857A7.378,7.378,0,0,1,128.2261,25.9a7.7606,7.7606,0,0,1,2.8432-6.227,10.2855,10.2855,0,0,1,6.5093-2.0918A28.7063,28.7063,0,0,1,142.4189,18.1924Z" fill="#003c78"/><path d="M160.7725,25.6411c0,5.1231-3.4307,8.2012-8.4829,8.2012-4.7232,0-8.1539-3.1021-8.1539-8.0132a8.0905,8.0905,0,0,1,8.3892-8.248C157.4126,17.5811,160.7725,20.8711,160.7725,25.6411Zm-8.4356-6.979c-2.8906,0-4.4414,2.7026-4.4414,6.627,0,2.8667,1.01,7.4721,4.8408,7.4721,3.0782,0,4.2764-3.0078,4.2764-6.8144C157.0127,21.9287,155.2505,18.6621,152.3369,18.6621Z" fill="#003c78"/><path d="M177.0352,29.4717c0,1.5273,0,3.0078.0468,3.7832a1.8574,1.8574,0,0,1-1.3867.5405c-.0234,0-.7988-1.1987-1.9033-2.5615l-5.4282-6.7207a34.3117,34.3117,0,0,0-2.5611-3.0078,4.1527,4.1527,0,0,0-.1176,1.5039v4.5591a16.4516,16.4516,0,0,0,.3525,4.3c.2114.4936.752.6582,1.3628.7519l.6582.0943a.7463.7463,0,0,1,0,.8222c-1.269-.0469-2.209-.07-3.1489-.07-.87,0-1.7388.0234-2.6319.07a.7454.7454,0,0,1,0-.8222l.3994-.07c.6343-.1176,1.1045-.2822,1.2925-.7758a16.7437,16.7437,0,0,0,.3291-4.3V21.6a5.38,5.38,0,0,0-.1645-1.9975c-.188-.3995-.5171-.6812-1.3394-.7989l-.6582-.0942c-.1645-.1875-.1406-.752.0943-.8223,1.1044.0469,2.2793.07,3.2426.07.7989,0,1.4805-.0234,1.9737-.07.2353,1.0576,1.7627,2.8433,3.8774,5.3579l1.9741,2.3262c1.0337,1.2222,1.7154,2.0444,2.2559,2.585a3.3857,3.3857,0,0,0,.0937-1.0577V23.8555a16.4331,16.4331,0,0,0-.3525-4.3c-.2114-.4937-.7285-.6577-1.3628-.752l-.6343-.0942a.7456.7456,0,0,1,0-.8223c1.2686.0469,2.1851.07,3.1485.07.87,0,1.7158-.0234,2.6318-.07a.7456.7456,0,0,1,0,.8223l-.4228.0708a1.4394,1.4394,0,0,0-1.2691.7754,16.4617,16.4617,0,0,0-.352,4.3Z" fill="#003c78"/><path d="M184.5786,33.8423a8.1551,8.1551,0,0,1-3.9946-.8931,7.6079,7.6079,0,0,1-.752-3.8066.58.58,0,0,1,.8931-.07c.47,1.5273,2.0444,3.6889,4.0415,3.6889a2.3374,2.3374,0,0,0,2.5381-2.373c0-1.9038-1.7861-3.0318-3.1958-3.7363-1.6919-.8462-3.5484-2.2559-3.5484-4.5826-.0234-2.6552,2.0445-4.4882,5.4517-4.4882a9.5415,9.5415,0,0,1,2.6787.3759,5.5968,5.5968,0,0,0,.7988.1885,11.44,11.44,0,0,1,.4234,3.36c-.1177.2822-.7051.3056-.9165.0708-.4-1.1988-1.41-2.9141-3.1021-2.9141a2.1839,2.1839,0,0,0-2.3969,2.1856,3.4411,3.4411,0,0,0,2.1386,2.6787l1.5508.8222c1.457.7759,3.3135,2.1387,3.3135,4.7237C190.5005,31.9624,188.127,33.8423,184.5786,33.8423Z" fill="#003c78"/><path d="M197.2217,30.0356c0,2.2085.1411,2.3731,1.2221,2.5611l.6578.1177a.67.67,0,0,1-.0235.8222c-1.269-.0469-2.42-.07-3.5249-.07-1.1279,0-2.3027.0234-3.5718.07a.67.67,0,0,1,0-.8222l.6582-.1177c1.0811-.188,1.2217-.3526,1.2217-2.5611V21.3882c0-2.209-.1406-2.3736-1.2217-2.5615l-.6582-.1177a.67.67,0,0,1,0-.8223c1.2691.0469,2.4439.07,3.5718.07,1.1045,0,2.2793-.0234,3.5484-.07a.67.67,0,0,1,0,.8223l-.6578.1177c-1.081.1879-1.2221.3525-1.2221,2.5615Z" fill="#003c78"/><path d="M215.2217,29.4717c0,1.5273,0,3.0078.0473,3.7832a1.8574,1.8574,0,0,1-1.3867.5405c-.0234,0-.7988-1.1987-1.9033-2.5615l-5.4282-6.7207a34.3117,34.3117,0,0,0-2.5611-3.0078,4.1527,4.1527,0,0,0-.1176,1.5039v4.5591a16.4516,16.4516,0,0,0,.3525,4.3c.2114.4936.752.6582,1.3628.7519l.6582.0943a.7454.7454,0,0,1,0,.8222c-1.269-.0469-2.209-.07-3.1489-.07-.87,0-1.7388.0234-2.6319.07a.7455.7455,0,0,1,0-.8222l.3995-.07c.6347-.1176,1.1045-.2822,1.2924-.7758a16.7437,16.7437,0,0,0,.3291-4.3V21.6a5.38,5.38,0,0,0-.1645-1.9975c-.188-.3995-.5171-.6812-1.3394-.7989l-.6582-.0942c-.1645-.1875-.1411-.752.0943-.8223,1.1045.0469,2.2793.07,3.2426.07.7989,0,1.4805-.0234,1.9742-.07.2348,1.0576,1.7622,2.8433,3.8769,5.3579l1.9741,2.3262c1.0337,1.2222,1.7154,2.0444,2.2559,2.585a3.3857,3.3857,0,0,0,.0937-1.0577V23.8555a16.4331,16.4331,0,0,0-.3525-4.3c-.2114-.4937-.7285-.6577-1.3628-.752l-.6343-.0942a.7457.7457,0,0,1,0-.8223c1.2686.0469,2.1851.07,3.1485.07.87,0,1.7153-.0234,2.6318-.07a.7456.7456,0,0,1,0,.8223l-.4228.0708a1.44,1.44,0,0,0-1.2691.7754,16.4556,16.4556,0,0,0-.3525,4.3Z" fill="#003c78"/><path d="M225.7969,21.7642c0-2.2325-.0469-2.6792-1.128-2.7964l-.4462-.0469c-.2349-.1177-.2349-.7993.0468-.8228,1.9742-.1171,3.8067-.2114,6.2979-.2114a16.4273,16.4273,0,0,1,5.4751.7754,7.1226,7.1226,0,0,1,4.77,6.8145,7.49,7.49,0,0,1-4.2061,7.0263,13.1169,13.1169,0,0,1-5.9453,1.1045c-1.1045,0-2.2793-.1411-3.125-.1411-1.1279,0-2.3266.0234-3.666.07a.67.67,0,0,1,0-.8222l.7285-.1177c1.0577-.1641,1.1983-.3526,1.1983-2.5142Zm3.36,7.4487c0,1.2925.0469,2.1387.47,2.6318a2.53,2.53,0,0,0,1.95.6817c4.0655,0,5.4517-3.6187,5.4517-6.8145,0-4.23-2.2324-6.7441-6.4854-6.7441a1.6968,1.6968,0,0,0-1.2221.3056,2.8622,2.8622,0,0,0-.1646,1.3628Z" fill="#003c78"/><path d="M247.7925,24.0669c0,.6577.0234.7051.6582.7051h1.6211c1.2221,0,1.5039-.1646,1.7387-1.2925l.1177-.5874c.1646-.188.752-.188.87.0234-.0469.752-.0708,1.5977-.0708,2.4908s.0239,1.7387.0708,2.4907a.6743.6743,0,0,1-.87.0239l-.1177-.5879c-.2348-1.1279-.5166-1.3159-1.7387-1.3159h-1.6211c-.6348,0-.6582.0239-.6582.7285V29.542a4.26,4.26,0,0,0,.376,2.2324c.3056.4229.7519.6109,2.4672.6109,2.0445,0,2.8433-.07,4.1358-2.7256a.5708.5708,0,0,1,.87.1172,13.3392,13.3392,0,0,1-.9868,3.76c-1.2456-.0469-3.5015-.07-5.4282-.07h-3.0552c-1.1279,0-2.2793.0234-4.0415.07a.67.67,0,0,1,0-.8222l1.1045-.1646c1.0571-.1645,1.1982-.3057,1.1982-2.4673V21.3174c0-2.1382-.1411-2.2793-1.1982-2.4907l-.5874-.1177a.5909.5909,0,0,1,.0469-.8223c1.1045.0469,2.2558.07,3.3837.07h4.9815c1.5039,0,2.8437-.0234,3.1489-.07.0235.376.188,2.0679.3057,3.6426-.0943.2583-.6343.3052-.87.0937a5.4444,5.4444,0,0,0-.8926-1.8564,3.09,3.09,0,0,0-2.3032-.7285h-1.88c-.7754,0-.7754.0469-.7754.9165Z" fill="#003c78"/><path d="M258.3672,21.7642c0-2.3736-.0469-2.6553-1.0337-2.773l-.7285-.0937a.5444.5444,0,0,1,.0469-.7994c1.5507-.1171,3.3837-.2114,5.4282-.2114a11.9991,11.9991,0,0,1,4.3.6109,4.1784,4.1784,0,0,1,2.8667,4.0654c0,3.854-3.877,4.4175-5.1226,4.4175-.2822,0-.4936,0-.7519-.0235a.451.451,0,0,1-.0708-.6342c1.9506-.6109,2.35-1.9976,2.35-3.7364s-.8931-3.6186-3.0079-3.6186c-.87,0-.9165.2583-.9165,1.1982v9.9165c0,2.1856.1412,2.3736,1.1983,2.5376l.7519.1177a.5079.5079,0,0,1,0,.7988c-1.3154-.0469-2.4673-.07-3.5952-.07s-2.2558.0234-3.5244.07c-.2588-.1406-.3057-.6811-.0474-.7988l.6582-.1177c1.0577-.1875,1.1983-.352,1.1983-2.5376Z" fill="#003c78"/><path d="M272.42,28.1558c-.564,0-.6348.0234-.7759.47l-.916,2.7261a2.735,2.735,0,0,0-.1645.8457c0,.1411.3051.2822.9633.3994l.7051.1177c.1406.1645.188.705-.0473.8222-.8223-.0469-1.6685-.0469-2.6553-.07-.7988,0-1.3394.07-2.42.07-.2583-.1406-.2349-.6343-.07-.8222l.6342-.07a1.6185,1.6185,0,0,0,1.4336-1.1752c.3994-.94.8462-2.0679,1.4805-3.76l2.1382-5.7334c.5405-1.48.94-2.3027.87-2.9844a4.7137,4.7137,0,0,0,2.0444-1.41c.3052,0,.4463.1176.5406.47.188.6816.47,1.5508,1.0571,3.2192l3.1958,9.2114c.4937,1.41.7051,1.9507,1.5747,2.0913l.8926.1412c.1411.1176.188.6816-.0234.8222-1.128-.0469-2.3965-.07-3.6187-.07-1.1748,0-2.0913.0234-3.1724.07a.5329.5329,0,0,1-.0468-.8222l.7519-.1177c.5405-.0938.6343-.2583.6343-.3994A9.9347,9.9347,0,0,0,276.979,30.6l-.6343-2.021c-.1176-.376-.3056-.4228-1.1279-.4228Zm2.6787-1.2456c.54,0,.6577-.07.47-.6817l-.6108-1.9033c-.3291-1.01-.7519-2.2793-.9634-2.7725-.188.54-.6577,1.8091-1.01,2.89l-.5879,1.7622c-.2114.6347-.0938.7051.4936.7051Z" fill="#003c78"/><path d="M284.9458,21.7642c0-2.35-.0469-2.6084-1.0337-2.75l-.6348-.0937a.5352.5352,0,0,1,.0474-.8228c1.7622-.1171,3.5952-.2114,5.8276-.2114a9.8892,9.8892,0,0,1,4.6055.8462,3.8481,3.8481,0,0,1,2.0684,3.4775,3.7908,3.7908,0,0,1-2.4912,3.525c-.2354.1171-.2354.2583-.1172.517,1.5508,3.1485,2.5136,4.9112,3.6416,5.8746a2.8792,2.8792,0,0,0,1.5742.6577.4493.4493,0,0,1,.0947.6113,5.6611,5.6611,0,0,1-1.8564.2114,4.7992,4.7992,0,0,1-4.5586-2.4673,29.2944,29.2944,0,0,1-1.833-3.6425,1.1934,1.1934,0,0,0-1.2451-.8223c-.8228,0-.87.0469-.87.5171v2.89c0,2.1616.1412,2.3262,1.1983,2.5142l.6347.1177a.7479.7479,0,0,1,0,.8222c-1.2451-.0469-2.3261-.07-3.4541-.07-1.1748,0-2.2089.0234-3.4306.07a.6682.6682,0,0,1,0-.8222l.6343-.1177c1.0571-.188,1.1982-.3526,1.1982-2.5142Zm3.2192,2.9843c0,.8223.0708.8926,1.4571.8926a2.2582,2.2582,0,0,0,1.7861-.6577,3.4174,3.4174,0,0,0,.8457-2.5381c0-2.1147-1.2451-3.4775-3.0781-3.4775-.9634,0-1.0108.07-1.0108,1.1982Z" fill="#003c78"/><path d="M302.6416,19.72c0-.5639,0-.6816-.5645-.6816h-1.456c-1.7158,0-2.209.94-2.9141,2.6553a.6577.6577,0,0,1-.8691-.2115,28.8547,28.8547,0,0,0,.7754-3.9946.56.56,0,0,1,.3281-.1177.54.54,0,0,1,.3291.0943c.1182.3994.1885.4931,1.9746.4931h8.7412c1.5508,0,1.9033-.0234,2.1143-.5166a.5931.5931,0,0,1,.3057-.0708.5.5,0,0,1,.3525.1646,16.6814,16.6814,0,0,0-.3525,4.042c-.1172.2114-.752.2583-.8692.07-.3994-1.5039-.7285-2.6084-2.4912-2.6084h-1.4092c-.5644,0-.6347.0708-.6347.6816V30.0825c0,2.1856.1406,2.3736,1.1982,2.5142l.94.1177a.7481.7481,0,0,1,0,.8222c-1.5273-.0469-2.7031-.07-3.76-.07-1.128,0-2.3506.0234-3.9952.07a.6687.6687,0,0,1,0-.8222l1.0577-.1177c1.0576-.1172,1.1982-.3286,1.1982-2.5142Z" fill="#003c78"/><path d="M312.6055,18.709c-.1875-.1875-.1875-.752.07-.8223.7988.0469,1.81.07,2.9609.07.7754,0,1.4571,0,2.3028-.07,0,1.4571.8222,2.8906,1.8564,5.0991l1.5508,3.3135c.2119.47,1.0576,1.95,1.3867,2.5376.3057-.564.6816-1.292,1.3164-2.6787l1.1982-2.585a29.3738,29.3738,0,0,0,2.2325-5.6865,21.468,21.468,0,0,0,2.3261.07c.7754,0,1.8565-.0234,2.7022-.07a.5846.5846,0,0,1,.07.8223l-.6816.1177c-.9629.1645-1.4327.4467-1.4327,1.6919,0,4.8408.0469,7.3784.1875,10.3393.0469,1.0811.1407,1.645,1.0577,1.7622l.7519.0943c.1875.1879.1875.7285-.0469.8222-1.081-.0469-2.0918-.07-3.2431-.07-1.0576,0-2.35.0234-3.4776.07a.5342.5342,0,0,1-.07-.8222l.7051-.0943c1.0811-.1406,1.0811-.4228,1.0811-1.8559l-.0479-6.11V21.9756h-.0469c-1.7383,3.76-3.6181,7.6841-5.1689,11.6553a.7612.7612,0,0,1-.4707.1645,1.2376,1.2376,0,0,1-.61-.1411c-.917-2.9141-3.8076-8.7412-5.123-11.7964h-.0469c-.0937,1.5274-.1172,2.5615-.1416,3.7832-.0234,1.5278-.0469,3.8775-.0469,5.2876,0,1.1748.1416,1.5039,1.0811,1.6445l.917.1412a.67.67,0,0,1-.0469.8222c-.87-.0469-1.88-.07-2.7734-.07-.752,0-1.6446.0234-2.585.07-.3057-.0937-.3057-.7046-.0937-.8222l.4228-.07c1.1982-.2114,1.34-.3525,1.4805-1.8095.1172-1.1514.1885-3.1958.3291-5.4282.0937-1.5743.1406-3.4776.1406-4.7466,0-1.3394-.5166-1.6919-1.4561-1.8565Z" fill="#003c78"/><path d="M339.1836,24.0669c0,.6577.0234.7051.6582.7051h1.6211c1.2217,0,1.5039-.1646,1.7392-1.2925l.1172-.5874c.1651-.188.752-.188.8692.0234-.0469.752-.07,1.5977-.07,2.4908s.0234,1.7387.07,2.4907a.6735.6735,0,0,1-.8692.0239l-.1172-.5879c-.2353-1.1279-.5175-1.3159-1.7392-1.3159h-1.6211c-.6348,0-.6582.0239-.6582.7285V29.542a4.2553,4.2553,0,0,0,.376,2.2324c.3056.4229.7519.6109,2.4677.6109,2.044,0,2.8428-.07,4.1358-2.7256a.57.57,0,0,1,.8691.1172,13.3041,13.3041,0,0,1-.9873,3.76c-1.2451-.0469-3.501-.07-5.4277-.07h-3.0547c-1.1279,0-2.2793.0234-4.042.07a.6682.6682,0,0,1,0-.8222l1.1045-.1646c1.0576-.1645,1.1982-.3057,1.1982-2.4673V21.3174c0-2.1382-.1406-2.2793-1.1982-2.4907l-.5879-.1177a.5918.5918,0,0,1,.0469-.8223c1.1045.0469,2.2558.07,3.3848.07H342.45c1.5039,0,2.8428-.0234,3.1484-.07.0235.376.1885,2.0679.3057,3.6426-.0938.2583-.6348.3052-.8691.0937a5.443,5.443,0,0,0-.8936-1.8564,3.0882,3.0882,0,0,0-2.3027-.7285h-1.88c-.7754,0-.7754.0469-.7754.9165Z" fill="#003c78"/><path d="M362.4014,29.4717c0,1.5273,0,3.0078.0468,3.7832a1.8574,1.8574,0,0,1-1.3867.5405c-.0234,0-.7988-1.1987-1.9033-2.5615l-5.4277-6.7207a34.3727,34.3727,0,0,0-2.5616-3.0078,4.17,4.17,0,0,0-.1171,1.5039v4.5591a16.4291,16.4291,0,0,0,.3525,4.3c.2109.4936.752.6582,1.3623.7519l.6582.0943a.7472.7472,0,0,1,0,.8222c-1.2685-.0469-2.209-.07-3.1494-.07-.8691,0-1.7383.0234-2.6309.07a.7437.7437,0,0,1,0-.8222l.3994-.07c.6338-.1176,1.1045-.2822,1.292-.7758a16.72,16.72,0,0,0,.3291-4.3V21.6a5.3628,5.3628,0,0,0-.165-1.9975c-.1875-.3995-.5166-.6812-1.3389-.7989l-.6582-.0942c-.164-.1875-.1406-.752.0938-.8223,1.1045.0469,2.2793.07,3.2431.07.7989,0,1.48-.0234,1.9737-.07.2353,1.0576,1.7627,2.8433,3.8779,5.3579l1.9736,2.3262c1.0342,1.2222,1.7149,2.0444,2.2559,2.585a3.3857,3.3857,0,0,0,.0937-1.0577V23.8555a16.4331,16.4331,0,0,0-.3525-4.3c-.2109-.4937-.7285-.6577-1.3633-.752l-.6338-.0942a.7439.7439,0,0,1,0-.8223c1.2686.0469,2.1856.07,3.1485.07.87,0,1.7158-.0234,2.6318-.07a.7437.7437,0,0,1,0,.8223l-.4228.0708a1.4373,1.4373,0,0,0-1.2686.7754,16.4331,16.4331,0,0,0-.3525,4.3Z" fill="#003c78"/><path d="M370.65,19.72c0-.5639,0-.6816-.5645-.6816H368.63c-1.7158,0-2.209.94-2.9141,2.6553a.6592.6592,0,0,1-.87-.2115,28.75,28.75,0,0,0,.7764-3.9946.56.56,0,0,1,.3281-.1177.54.54,0,0,1,.3291.0943c.1182.3994.1885.4931,1.9746.4931h8.7412c1.5508,0,1.9033-.0234,2.1143-.5166a.593.593,0,0,1,.3056-.0708.5007.5007,0,0,1,.3526.1646,16.6859,16.6859,0,0,0-.3526,4.042c-.1171.2114-.7519.2583-.8691.07-.3994-1.5039-.7285-2.6084-2.4912-2.6084h-1.4092c-.5644,0-.6348.0708-.6348.6816V30.0825c0,2.1856.1407,2.3736,1.1983,2.5142l.94.1177a.7481.7481,0,0,1,0,.8222c-1.5283-.0469-2.7031-.07-3.76-.07-1.1279,0-2.35.0234-3.9951.07a.6687.6687,0,0,1,0-.8222l1.0576-.1177c1.0577-.1172,1.1983-.3286,1.1983-2.5142Z" fill="#003c78"/><path d="M93.5352,52.8413a8.93,8.93,0,0,1-2.4913,5.334,4.5058,4.5058,0,0,1-3.36,1.6216c-1.5039,0-2.4907-1.1045-2.35-3.1255a8.819,8.819,0,0,1,2.5615-5.2637A4.5758,4.5758,0,0,1,91.1382,49.88C92.8066,49.88,93.6289,51.126,93.5352,52.8413Zm-4.2769-1.1279a13.5836,13.5836,0,0,0-2.35,5.8745c-.0469.8223.2822,1.5039.9634,1.5039.5171,0,1.1045-.2114,1.8564-1.2217a14.5035,14.5035,0,0,0,2.1856-5.7339c.0234-.7285-.1177-1.5508-.94-1.5508C90.5034,50.5854,89.94,50.7969,89.2583,51.7134Z" fill="#003d78"/><path d="M99.1753,51.0786c-.1411.4-.3291,1.1519-.6108,2.1856-.7051,2.6318-1.34,4.8877-2.0918,7.4726A9.2842,9.2842,0,0,1,94.6162,64.52a4.3748,4.3748,0,0,1-2.8193,1.2691c-1.2691,0-1.7158-.7994-1.7158-1.1514a1.3707,1.3707,0,0,1,.54-1.0576.3829.3829,0,0,1,.54.0937,2.83,2.83,0,0,0,1.7861.9639c.47,0,.9634-.1646,1.5039-1.9741,1.0806-3.7129,1.9034-7.7544,3.0313-11.585H95.5327a.5887.5887,0,0,1,.1646-.8691h2.021a14.2919,14.2919,0,0,1,2.6318-5.5928,4.7588,4.7588,0,0,1,3.76-1.95,1.7191,1.7191,0,0,1,1.81,1.5508c0,.6108-.6347,1.3393-1.0107,1.3393-.2114,0-.3052-.2114-.3286-.3759-.0708-1.2925-.7285-1.7154-1.3164-1.7154a2.4336,2.4336,0,0,0-1.6914,1.2691A17.6473,17.6473,0,0,0,99.3867,50.21h2.9375a.6306.6306,0,0,1-.2353.8691Z" fill="#003d78"/><path d="M118.209,52.0186c-.9634,0-.9868.0234-.9868.6816V56.084c0,2.1855.1411,2.397,1.1987,2.5381l.752.0937a.6714.6714,0,0,1,0,.8223c-1.34-.0469-2.5147-.07-3.5723-.07-1.1279,0-2.3027.0234-3.501.07a.67.67,0,0,1,0-.8223l.564-.07c1.081-.1411,1.1982-.376,1.1982-2.5615V47.3428c0-2.1856-.1172-2.42-1.1982-2.5615l-.564-.07a.6705.6705,0,0,1,0-.8227c1.1514.0469,2.3731.0708,3.501.0708,1.0576,0,2.2324-.0239,3.2666-.0708a.6705.6705,0,0,1,0,.8227l-.4937.07c-1.01.1411-1.1513.3759-1.1513,2.5615v2.7256c0,.6816.0234.705.9868.705h4.8877c.9873,0,.9873-.0234.9873-.705V47.3428c0-2.1856-.1177-2.3736-1.1987-2.5381l-.6343-.0938a.6705.6705,0,0,1,0-.8227c1.2925.0469,2.4438.0708,3.5718.0708,1.1513,0,2.2324-.0239,3.3129-.0708a.6691.6691,0,0,1,0,.8227l-.47.07c-1.081.1645-1.2217.3759-1.2217,2.5615V56.084c0,2.1855.1407,2.35,1.2217,2.5381l.564.0937a.67.67,0,0,1,0,.8223c-1.1748-.0469-2.3262-.07-3.4072-.07q-1.7623,0-3.4546.07a.6714.6714,0,0,1,0-.8223l.5171-.07c1.081-.1411,1.1987-.376,1.1987-2.5615V52.7c0-.6582,0-.6816-.9873-.6816Z" fill="#003d78"/><path d="M136.1631,50.0684c0,.6582.0234.705.6582.705h1.6211c1.2222,0,1.5039-.1645,1.7392-1.2924l.1172-.5874c.1646-.188.752-.188.87.0234-.0474.7519-.0708,1.5976-.0708,2.4907s.0234,1.7388.0708,2.4907a.6729.6729,0,0,1-.87.0235l-.1172-.5874c-.2353-1.128-.517-1.3159-1.7392-1.3159h-1.6211c-.6348,0-.6582.0234-.6582.7285v2.7964a4.26,4.26,0,0,0,.376,2.2324c.3056.4228.7519.6108,2.4672.6108,2.0445,0,2.8433-.07,4.1358-2.7256a.5709.5709,0,0,1,.87.1172,13.339,13.339,0,0,1-.9868,3.76c-1.2456-.0469-3.5015-.07-5.4282-.07H134.542c-1.1279,0-2.28.0234-4.042.07a.67.67,0,0,1,0-.8223l1.1045-.1645c1.0576-.1646,1.1982-.3052,1.1982-2.4673V47.3188c0-2.1381-.1406-2.2792-1.1982-2.4907l-.5874-.1172a.5913.5913,0,0,1,.0469-.8227c1.1045.0469,2.2558.0708,3.3838.0708H139.43c1.5039,0,2.8432-.0239,3.1484-.0708.0235.376.188,2.0679.3057,3.6421-.0942.2588-.6348.3056-.87.0942a5.4335,5.4335,0,0,0-.8931-1.8564,3.0882,3.0882,0,0,0-2.3027-.7285h-1.88c-.7754,0-.7754.0473-.7754.9165Z" fill="#003d78"/><path d="M148.8765,54.1572c-.564,0-.6348.0235-.7759.47l-.916,2.726a2.7367,2.7367,0,0,0-.1646.8457c0,.1411.3052.2823.9634.3994l.7051.1177c.1406.1646.188.7051-.0474.8223-.8223-.0469-1.6684-.0469-2.6553-.07-.7988,0-1.3393.07-2.42.07-.2583-.1406-.2348-.6343-.07-.8223l.6343-.07A1.6186,1.6186,0,0,0,145.563,57.47c.3994-.94.8462-2.0679,1.4805-3.76l2.1381-5.7333c.5406-1.48.94-2.3028.87-2.9844a4.715,4.715,0,0,0,2.0444-1.41c.3052,0,.4463.1172.5405.47.188.6817.47,1.5508,1.0572,3.2193l3.1958,9.2114c.4936,1.41.705,1.95,1.5747,2.0913l.8925.1411c.1412.1177.188.6817-.0234.8223-1.1279-.0469-2.3965-.07-3.6186-.07-1.1748,0-2.0914.0234-3.1724.07a.533.533,0,0,1-.0469-.8223l.752-.1177c.5405-.0937.6342-.2583.6342-.3994a9.9293,9.9293,0,0,0-.4462-1.5976l-.6343-2.021c-.1177-.376-.3057-.4229-1.1279-.4229Zm2.6787-1.2456c.54,0,.6577-.07.47-.6811l-.6108-1.9038c-.3291-1.01-.752-2.2793-.9634-2.7725-.188.5405-.6577,1.8091-1.01,2.89l-.5879,1.7622c-.2114.6348-.0937.7051.4937.7051Z" fill="#003d78"/><path d="M164.7622,55.5669a3.8946,3.8946,0,0,0,.3994,2.2324c.3057.3994.7285.5874,2.4439.5874,2.1386,0,2.7964-.07,4.1826-2.7964a.6258.6258,0,0,1,.8931.1411,14.4684,14.4684,0,0,1-1.01,3.8067c-1.2456-.0469-3.5015-.07-5.4282-.07h-3.1489c-1.0811,0-2.2559.0234-3.7129.07a.6447.6447,0,0,1-.07-.8223l.8931-.1177c1.0571-.1406,1.1983-.3286,1.1983-2.5141V47.3428c0-2.1856-.1412-2.397-1.1983-2.5381l-.6816-.0938a.5351.5351,0,0,1,.0473-.8227q1.8325.07,3.5245.0708c1.1279,0,2.3027-.0239,3.478-.0708a.6705.6705,0,0,1,0,.8227l-.6109.0938c-1.0576.1645-1.1987.3525-1.1987,2.5381Z" fill="#003d78"/><path d="M175.9717,45.7212c0-.564,0-.6816-.564-.6816h-1.457c-1.7153,0-2.209.94-2.9136,2.6552a.6584.6584,0,0,1-.87-.2114,28.72,28.72,0,0,0,.7754-3.9946.5634.5634,0,0,1,.3291-.1177.5384.5384,0,0,1,.3291.0942c.1172.3994.188.4937,1.9736.4937h8.7417c1.5508,0,1.9033-.0239,2.1148-.5171a.5827.5827,0,0,1,.3051-.0708.5016.5016,0,0,1,.3526.1645,16.6642,16.6642,0,0,0-.3526,4.042c-.1172.2115-.7519.2583-.8691.07-.3994-1.5039-.7285-2.6083-2.4907-2.6083h-1.41c-.564,0-.6343.0708-.6343.6816V56.084c0,2.1855.1407,2.3735,1.1983,2.5141l.94.1177a.7464.7464,0,0,1,0,.8223c-1.5273-.0469-2.7021-.07-3.76-.07-1.1279,0-2.35.0234-3.9946.07a.67.67,0,0,1,0-.8223l1.0576-.1177c1.0572-.1171,1.1983-.3286,1.1983-2.5141Z" fill="#003d78"/><path d="M192.1626,52.0186c-.9634,0-.9868.0234-.9868.6816V56.084c0,2.1855.1411,2.397,1.1982,2.5381l.752.0937a.6685.6685,0,0,1,0,.8223c-1.3394-.0469-2.5142-.07-3.5713-.07-1.1279,0-2.3032.0234-3.5015.07a.67.67,0,0,1,0-.8223l.564-.07c1.081-.1411,1.1982-.376,1.1982-2.5615V47.3428c0-2.1856-.1172-2.42-1.1982-2.5615l-.564-.07a.6705.6705,0,0,1,0-.8227c1.1514.0469,2.3736.0708,3.5015.0708,1.0571,0,2.2319-.0239,3.2661-.0708a.6705.6705,0,0,1,0,.8227l-.4937.07c-1.01.1411-1.1513.3759-1.1513,2.5615v2.7256c0,.6816.0234.705.9868.705H197.05c.9873,0,.9873-.0234.9873-.705V47.3428c0-2.1856-.1177-2.3736-1.1987-2.5381l-.6343-.0938a.6705.6705,0,0,1,0-.8227c1.2925.0469,2.4438.0708,3.5718.0708,1.1513,0,2.2324-.0239,3.3134-.0708a.6719.6719,0,0,1,0,.8227l-.47.07c-1.081.1645-1.2221.3759-1.2221,2.5615V56.084c0,2.1855.1411,2.35,1.2221,2.5381l.564.0937a.67.67,0,0,1,0,.8223c-1.1748-.0469-2.3262-.07-3.4072-.07q-1.7622,0-3.4541.07a.6685.6685,0,0,1,0-.8223l.5166-.07c1.081-.1411,1.1987-.376,1.1987-2.5615V52.7c0-.6582,0-.6816-.9873-.6816Z" fill="#003d78"/><path d="M215.0044,59.8438a8.1551,8.1551,0,0,1-3.9946-.8931,7.6081,7.6081,0,0,1-.752-3.8067.58.58,0,0,1,.8931-.07c.47,1.5274,2.0444,3.689,4.0415,3.689a2.3374,2.3374,0,0,0,2.5381-2.3731c0-1.9033-1.7862-3.0312-3.1958-3.7363-1.6919-.8462-3.5484-2.2558-3.5484-4.5825-.0234-2.6553,2.0445-4.4878,5.4517-4.4878a9.5236,9.5236,0,0,1,2.6787.376,5.6016,5.6016,0,0,0,.7988.1875,11.4462,11.4462,0,0,1,.4234,3.36c-.1177.2823-.7051.3057-.9165.0708-.4-1.1987-1.41-2.914-3.1021-2.914a2.1839,2.1839,0,0,0-2.397,2.1855,3.4409,3.4409,0,0,0,2.1387,2.6787l1.5508.8228c1.457.7754,3.3135,2.1382,3.3135,4.7231C220.9263,57.9639,218.5527,59.8438,215.0044,59.8438Z" fill="#003d78"/><path d="M227.6475,50.0684c0,.6582.0234.705.6582.705h1.6211c1.2221,0,1.5039-.1645,1.7392-1.2924l.1172-.5874c.1646-.188.752-.188.87.0234-.0473.7519-.0708,1.5976-.0708,2.4907s.0235,1.7388.0708,2.4907a.6728.6728,0,0,1-.87.0235l-.1172-.5874c-.2353-1.128-.5171-1.3159-1.7392-1.3159h-1.6211c-.6348,0-.6582.0234-.6582.7285v2.7964a4.2616,4.2616,0,0,0,.3759,2.2324c.3057.4228.752.6108,2.4673.6108,2.0445,0,2.8433-.07,4.1358-2.7256a.5709.5709,0,0,1,.87.1172,13.339,13.339,0,0,1-.9868,3.76c-1.2456-.0469-3.5015-.07-5.4282-.07h-3.0547c-1.128,0-2.28.0234-4.042.07a.67.67,0,0,1,0-.8223l1.1045-.1645c1.0576-.1646,1.1982-.3052,1.1982-2.4673V47.3188c0-2.1381-.1406-2.2792-1.1982-2.4907l-.5874-.1172a.5913.5913,0,0,1,.0468-.8227c1.1045.0469,2.2559.0708,3.3838.0708h4.982c1.5039,0,2.8432-.0239,3.1484-.0708.0234.376.188,2.0679.3057,3.6421-.0943.2588-.6348.3056-.87.0942a5.4355,5.4355,0,0,0-.893-1.8564,3.0883,3.0883,0,0,0-2.3028-.7285h-1.88c-.7754,0-.7754.0473-.7754.9165Z" fill="#003d78"/><path d="M238.2222,47.7656c0-2.35-.0469-2.6084-1.0337-2.7495l-.6348-.0937a.5351.5351,0,0,1,.0474-.8228c1.7622-.1172,3.5952-.2114,5.8276-.2114a9.8893,9.8893,0,0,1,4.6055.8462,3.8486,3.8486,0,0,1,2.0679,3.4775,3.79,3.79,0,0,1-2.4908,3.5249c-.2348.1177-.2348.2583-.1176.5171,1.5512,3.1484,2.5146,4.9111,3.6425,5.8745a2.87,2.87,0,0,0,1.5742.6577.45.45,0,0,1,.0943.6114,5.675,5.675,0,0,1-1.8565.2114,4.8006,4.8006,0,0,1-4.559-2.4673,29.3055,29.3055,0,0,1-1.8326-3.6426,1.1934,1.1934,0,0,0-1.2456-.8222c-.8222,0-.87.0468-.87.517v2.89c0,2.1621.1411,2.3262,1.1987,2.5141l.6343.1177a.7461.7461,0,0,1,0,.8223c-1.2451-.0469-2.3262-.07-3.4541-.07-1.1748,0-2.209.0234-3.4307.07a.6686.6686,0,0,1,0-.8223l.6343-.1177c1.0572-.1879,1.1983-.352,1.1983-2.5141Zm3.2192,2.9844c0,.8223.0708.8926,1.457.8926a2.2585,2.2585,0,0,0,1.7862-.6577,3.4175,3.4175,0,0,0,.8457-2.5381c0-2.1148-1.2451-3.4776-3.0782-3.4776-.9633,0-1.0107.07-1.0107,1.1983Z" fill="#003d78"/><path d="M260.5234,53.64c-1.1982,2.8433-1.8095,4.7-2.35,6.0157a1.579,1.579,0,0,1-.8232.188.97.97,0,0,1-.6338-.188c-.2588-.6343-.6582-1.88-.9873-2.6787l-3.8066-9.564c-.8931-2.2559-1.0108-2.3027-1.7627-2.4907l-.94-.2354a.5959.5959,0,0,1,.0938-.7988c1.1982.0234,1.9736.0708,3.1958.0708,1.081,0,2.0913-.0239,3.5249-.0708.1879.1411.1645.5874.0234.7988l-.7051.1411c-.4228.0943-.5874.2349-.5874.4463a19.4147,19.4147,0,0,0,.94,2.585l2.0673,5.2871.7764,1.9741c.1875-.3994.5635-1.1987.8457-1.9033l.8926-2.209c.5879-1.48,1.5976-4.1123,1.88-4.9111a3.0744,3.0744,0,0,0,.2353-.8462c0-.1641-.1885-.2583-.7519-.3994l-.752-.1646c-.1885-.188-.1885-.6811.0938-.7988,1.1045.0469,1.997.0708,2.8906.0708.7988,0,1.5039-.0239,2.1855-.0708.1875.0942.211.6582.0469.7988l-.6113.1177a1.7267,1.7267,0,0,0-1.3633.7754,27.3171,27.3171,0,0,0-1.9033,3.9946Z" fill="#003d78"/><path d="M271.0039,56.0371c0,2.209.1406,2.3731,1.2217,2.561l.6582.1177a.6693.6693,0,0,1-.0234.8223c-1.2686-.0469-2.42-.07-3.5245-.07-1.1279,0-2.3027.0234-3.5722.07a.6714.6714,0,0,1,0-.8223l.6582-.1177c1.081-.1879,1.2217-.352,1.2217-2.561V47.39c0-2.2089-.1407-2.3735-1.2217-2.5615l-.6582-.1172a.6719.6719,0,0,1,0-.8227c1.27.0469,2.4443.0708,3.5722.0708,1.1045,0,2.2793-.0239,3.5479-.0708a.6691.6691,0,0,1,0,.8227l-.6582.1172c-1.0811.188-1.2217.3526-1.2217,2.5615Z" fill="#003d78"/><path d="M288.8154,44.1938a31.17,31.17,0,0,0,.2823,3.6656.6444.6444,0,0,1-.8926.1645,4.2683,4.2683,0,0,0-4.418-3.36c-2.6084,0-5.4043,2.2324-5.4043,6.9087s2.7022,7.19,5.5215,7.19c2.8437,0,4.1592-2.0444,4.7939-3.6421a.6709.6709,0,0,1,.8926.1646,10.411,10.411,0,0,1-.8926,3.6889,17.4743,17.4743,0,0,1-4.77.87,10.7386,10.7386,0,0,1-6.3213-1.7862,7.377,7.377,0,0,1-2.9834-6.1562,7.76,7.76,0,0,1,2.8428-6.2271,10.2863,10.2863,0,0,1,6.5088-2.0913A28.6891,28.6891,0,0,1,288.8154,44.1938Z" fill="#003d78"/><path d="M295.9131,50.0684c0,.6582.0234.705.6582.705h1.6211c1.2217,0,1.5039-.1645,1.7392-1.2924l.1172-.5874c.1641-.188.752-.188.8692.0234-.0469.7519-.07,1.5976-.07,2.4907s.0234,1.7388.07,2.4907a.6722.6722,0,0,1-.8692.0235l-.1172-.5874c-.2353-1.128-.5175-1.3159-1.7392-1.3159h-1.6211c-.6348,0-.6582.0234-.6582.7285v2.7964a4.2553,4.2553,0,0,0,.376,2.2324c.3056.4228.7519.6108,2.4677.6108,2.044,0,2.8428-.07,4.1358-2.7256a.57.57,0,0,1,.8691.1172,13.304,13.304,0,0,1-.9873,3.76c-1.2451-.0469-3.501-.07-5.4277-.07H294.292c-1.1279,0-2.2793.0234-4.042.07a.6712.6712,0,0,1,0-.8223l1.1045-.1645c1.0576-.1646,1.1982-.3052,1.1982-2.4673V47.3188c0-2.1381-.1406-2.2792-1.1982-2.4907l-.5879-.1172a.5914.5914,0,0,1,.0479-.8227c1.1035.0469,2.2558.0708,3.3828.0708H299.18c1.5039,0,2.8428-.0239,3.1484-.0708.0235.376.1885,2.0679.3057,3.6421-.0938.2588-.6348.3056-.8692.0942a5.44,5.44,0,0,0-.8935-1.8564,3.0882,3.0882,0,0,0-2.3027-.7285h-1.88c-.7754,0-.7754.0473-.7754.9165Z" fill="#003d78"/><path d="M309.0967,59.8438a8.1595,8.1595,0,0,1-3.9951-.8931,7.6081,7.6081,0,0,1-.752-3.8067.58.58,0,0,1,.8936-.07c.47,1.5274,2.0439,3.689,4.042,3.689a2.3368,2.3368,0,0,0,2.5371-2.3731c0-1.9033-1.7852-3.0312-3.1953-3.7363-1.6924-.8462-3.5489-2.2558-3.5489-4.5825-.0234-2.6553,2.0449-4.4878,5.4522-4.4878a9.5217,9.5217,0,0,1,2.6787.376,5.5827,5.5827,0,0,0,.7988.1875,11.4335,11.4335,0,0,1,.4229,3.36c-.1172.2823-.7051.3057-.9161.0708-.3994-1.1987-1.41-2.914-3.1015-2.914a2.1837,2.1837,0,0,0-2.3975,2.1855,3.4419,3.4419,0,0,0,2.1387,2.6787l1.5508.8228c1.457.7754,3.3135,2.1382,3.3135,4.7231C315.0186,57.9639,312.6445,59.8438,309.0967,59.8438Z" fill="#003d78"/></g></g></svg>