<svg xmlns="http://www.w3.org/2000/svg" width="60" height="60" viewBox="0 0 60 60"><title>wnr_icon</title><g id="Layer_2" data-name="Layer 2"><g id="DEPT_HEALTH_EXPANDED" data-name="DEPT HEALTH EXPANDED"><path d="M30,59.13A29.15,29.15,0,0,0,58.63,24.61a20.62,20.62,0,0,0-11.76,8.14,20.6,20.6,0,0,0-33.74,0A20.62,20.62,0,0,0,1.37,24.61,29.15,29.15,0,0,0,30,59.13Z" fill="#fff"/><path d="M30,59.13a29.1,29.1,0,0,0,24.26-13,6.6,6.6,0,0,1-5.82-4,6.6,6.6,0,0,1-12.1,0,6.6,6.6,0,0,1-12.1,0,6.6,6.6,0,0,1-12.1,0,6.6,6.6,0,0,1-6,4h-.4A29.1,29.1,0,0,0,30,59.13Z" fill="#5dcae7"/><g id="de8d286e-6e7c-4d66-85f2-fa12704fb41e"><path d="M13.13,32.74a20.6,20.6,0,0,1,33.74,0A20.62,20.62,0,0,1,58.63,24.6a29.13,29.13,0,0,0-57.25,0A20.62,20.62,0,0,1,13.13,32.74Z" fill="#5ccae8"/></g><path d="M35.86,38.11,44.24,4.59a29.16,29.16,0,0,0-28.48,0l8.38,33.52Z"/><polygon points="50.42 38.11 43.14 8.98 35.86 38.11 41.72 38.11 41.72 52.67 44.56 52.67 44.56 38.11 50.42 38.11" fill="#009a67"/><g id="c1b3f573-9bf9-45a0-852f-474bd8e1e438"><polygon points="30.05 17.51 24.9 38.11 28.63 38.11 28.63 52.67 31.47 52.67 31.47 38.11 35.2 38.11 30.05 17.51" fill="#009a67"/></g><polygon points="24.14 38.11 16.86 8.98 9.58 38.11 15.44 38.11 15.44 52.67 18.28 52.67 18.28 38.11 24.14 38.11" fill="#009a67"/><path d="M30,59.13a29,29,0,0,0,20.92-8.87,83.001,83.001,0,0,0-41.85,0A29,29,0,0,0,30,59.13Z" fill="#040202"/><path d="M30,6.14l5.48,21.92L41.71,3.32q-1.27-.56-2.59-1L35.53,16.68,31.59.92H28.51l-4,16L20.88,2.33q-1.33.44-2.59,1l6.23,24.93Z" fill="#ef3e42"/><g id="e920ce5a-2570-43d0-bb80-0e5a17a44dee"><path d="M44.85,53H41.43V38.4H35.49L43.14,7.78,50.8,38.4H44.85ZM42,52.38h2.26V37.82H50L43.14,10.18,36.23,37.82H42Z" fill="#030000"/></g><path d="M31.76,53H28.34V38.4H24.53L30,16.31,35.57,38.4H31.76Zm-2.84-.58h2.26V37.82h3.65L30,18.71l-4.78,19.1h3.65Z" fill="#030000"/><g id="a2984f81-a66a-445b-a095-027abc859853"><path d="M18.57,53H15.15V38.4H9.2L16.86,7.78,24.51,38.4H18.57Zm-2.84-.58H18V37.82h5.78L16.86,10.18,9.95,37.82h5.78Z" fill="#030000"/></g><path d="M11.23,30.84a20.2393,20.2393,0,0,0-9.93-6l.14-.56A20.82,20.82,0,0,1,11.65,30.4Z" fill="#030000"/><path d="M48.77,30.84l-.43-.39a20.82,20.82,0,0,1,10.21-6.12l.14.56A20.24,20.24,0,0,0,48.77,30.84Z" fill="#030000"/><g id="d0098e32-a4ae-46b8-bde9-5972e53bcffd"><path d="M30,59.42A29.38,29.38,0,0,1,5.5,46.28l-.32-.49h.91A6.3,6.3,0,0,0,11.87,42l.27-.61.27.61a6.31,6.31,0,0,0,3.16,3.22l.17.08v7H18V45.84h.29A6.32,6.32,0,0,0,24,42l.27-.61.27.61a6.35,6.35,0,0,0,4.2,3.59l.22.06v6.68h2.26v-6.6h.24A6.29,6.29,0,0,0,36.07,42l.27-.61.27.61a6.3,6.3,0,0,0,5.15,3.76h.26V52.3h2.26V45.56l.19-.07A6.33,6.33,0,0,0,48.17,42l.27-.61.27.61a6.33,6.33,0,0,0,5.57,3.79h.52l-.29.44A29.38,29.38,0,0,1,30,59.42Zm-23.71-13a28.84,28.84,0,0,0,47.44,0,6.93,6.93,0,0,1-5.3-3.55A6.92,6.92,0,0,1,44.85,46v7H41.43V46.4a6.89,6.89,0,0,1-5.1-3.53,6.87,6.87,0,0,1-4.57,3.44V53H28.34V46.14a7,7,0,0,1-4.1-3.32,6.91,6.91,0,0,1-5.66,3.58V53H15.15V45.72a6.89,6.89,0,0,1-3-2.89A6.88,6.88,0,0,1,6.29,46.42Z" fill="#030000"/></g><polygon points="36.09 38.4 31.47 38.4 31.47 37.82 34.82 37.82 30.05 18.71 25.27 37.82 28.63 37.82 28.63 38.4 23.91 38.4 15.48 4.66 16.04 4.52 24.37 37.82 24.67 37.82 30.05 16.31 35.42 37.82 35.63 37.82 43.96 4.52 44.52 4.66 36.09 38.4" fill="#030000"/><path d="M30,60A30,30,0,1,1,60,30,30,30,0,0,1,30,60ZM30,1.75A28.25,28.25,0,1,0,58.25,30,28.25,28.25,0,0,0,30,1.75Z" fill="#030000"/></g></g></svg>